<?xml version="1.0" encoding="UTF-8"?>
<svg xmlns="http://www.w3.org/2000/svg" width="4096" height="3294" viewBox="0 0 4096 3294">
  <rect x="722" y="97" width="2399" height="1128" fill="#5185EF"/>
  <rect y="1883" width="3239" height="505" fill="#608021"/>
  <rect x="789" y="2586" width="2910" height="380" fill="#334718"/>
  <rect x="789" y="2966" width="2910" height="328" fill="#30450D"/>
  <rect x="1881" y="1225" width="1240" height="606" fill="#ACC4F2"/>
  <rect x="3121" y="508" width="975" height="741" fill="#5185EF"/>
  <rect x="3121" y="1249" width="975" height="582" fill="#ACC4F2"/>
  <rect y="297" width="722" height="774" fill="#5185EF"/>
  <rect y="1071" width="722" height="697" fill="#ACC4F2"/>
  <rect x="3258" width="838" height="508" fill="#ACC4F2"/>
  <rect x="172" y="2579" width="617" height="440" fill="#334718"/>
  <rect y="3019" width="789" height="275" fill="#30450D"/>
  <rect x="3699" y="2760" width="358" height="534" fill="#30450D"/>
  <rect x="1247" width="1874" height="97" fill="#ACC4F2"/>
  <rect y="55" width="722" height="242" fill="#ACC4F2"/>
  <rect x="3239" y="2018" width="818" height="198" fill="#334718"/>
  <rect x="1013" y="1225" width="555" height="282" fill="#5185EF"/>
  <rect x="722" y="1225" width="291" height="519" fill="#ACC4F2"/>
  <rect x="3239" y="2312" width="650" height="202" fill="#608021"/>
  <rect x="1013" y="1507" width="555" height="228" fill="#ACC4F2"/>
  <rect x="1568" y="1225" width="313" height="400" fill="#5185EF"/>
  <rect x="3239" y="1831" width="818" height="141" fill="#ACC4F2"/>
  <rect x="1057" y="2405" width="1184" height="74" fill="#577616"/>
  <rect y="2404" width="930" height="93" fill="#334718"/>
  <rect y="1831" width="1623" height="52" fill="#608021"/>
  <rect x="2612" y="2388" width="627" height="126" fill="#608021"/>
  <rect x="3699" y="2586" width="358" height="174" fill="#334718"/>
  <rect x="2859" y="2514" width="1198" height="48" fill="#608021"/>
  <rect x="2078" y="2514" width="781" height="72" fill="#577616"/>
  <rect x="722" width="525" height="97" fill="#5185EF"/>
  <rect y="2730" width="172" height="289" fill="#334718"/>
  <rect x="1390" y="2514" width="688" height="72" fill="#334718"/>
  <rect x="3121" y="215" width="137" height="293" fill="#5185EF"/>
  <rect x="1568" y="1625" width="313" height="126" fill="#ACC4F2"/>
  <rect x="16" width="706" height="55" fill="#5185EF"/>
  <rect x="2516" y="1831" width="723" height="52" fill="#ACC4F2"/>
  <rect y="2514" width="172" height="216" fill="#30450D"/>
  <rect x="3378" y="2241" width="511" height="71" fill="#577616"/>
  <rect x="172" y="2530" width="617" height="49" fill="#30450D"/>
  <rect x="3121" width="137" height="215" fill="#ACC4F2"/>
  <rect x="2859" y="2562" width="1198" height="24" fill="#577616"/>
  <rect x="1762" y="1831" width="551" height="52" fill="#334718"/>
  <rect x="722" y="1744" width="291" height="87" fill="#608021"/>
  <rect x="3889" y="2369" width="168" height="145" fill="#608021"/>
  <rect x="370" y="1768" width="352" height="63" fill="#608021"/>
  <rect x="4057" y="2729" width="39" height="565" fill="#30450D"/>
  <rect x="887" y="2514" width="487" height="43" fill="#30450D"/>
  <rect x="1057" y="2479" width="960" height="19" fill="#334718"/>
  <rect x="3889" y="2265" width="168" height="104" fill="#577616"/>
  <rect x="1057" y="2498" width="1053" height="16" fill="#334718"/>
  <rect x="1013" y="1786" width="372" height="45" fill="#608021"/>
  <rect x="2295" y="2440" width="284" height="58" fill="#577616"/>
  <rect x="2295" y="2388" width="284" height="52" fill="#608021"/>
  <rect y="2497" width="851" height="17" fill="#30450D"/>
  <rect x="1499" y="2388" width="796" height="17" fill="#608021"/>
  <rect x="3552" y="2216" width="479" height="25" fill="#334718"/>
  <rect x="1634" y="1777" width="203" height="54" fill="#334718"/>
  <rect x="3239" y="2241" width="139" height="71" fill="#608021"/>
  <rect x="3637" y="1988" width="325" height="30" fill="#2C559C"/>
  <rect y="1768" width="204" height="46" fill="#ACC4F2"/>
  <rect x="887" y="2557" width="286" height="29" fill="#334718"/>
  <rect x="3239" y="1988" width="271" height="30" fill="#334718"/>
  <rect x="4057" y="2356" width="39" height="206" fill="#608021"/>
  <rect x="2110" y="2498" width="502" height="16" fill="#577616"/>
  <rect x="3239" y="2216" width="313" height="25" fill="#577616"/>
  <rect x="1057" y="2388" width="442" height="17" fill="#577616"/>
  <rect x="4057" y="2078" width="39" height="191" fill="#334718"/>
  <rect x="301" y="2388" width="394" height="16" fill="#334718"/>
  <rect x="1173" y="2557" width="217" height="29" fill="#30450D"/>
  <rect x="1054" y="1767" width="331" height="19" fill="#577616"/>
  <rect x="1385" y="1767" width="130" height="48" fill="#577616"/>
  <rect x="1623" y="1831" width="112" height="52" fill="#577616"/>
  <rect x="695" y="2388" width="362" height="16" fill="#577616"/>
  <rect x="4057" y="1831" width="39" height="147" fill="#ACC4F2"/>
  <rect x="1034" y="1751" width="351" height="16" fill="#577616"/>
  <rect x="4057" y="2589" width="39" height="140" fill="#334718"/>
  <rect x="1013" y="1735" width="335" height="16" fill="#678970"/>
  <rect x="3374" y="1972" width="331" height="16" fill="#ACC4F2"/>
  <rect x="2017" y="2479" width="278" height="19" fill="#577616"/>
  <rect x="385" y="2514" width="319" height="16" fill="#334718"/>
  <rect x="2313" y="1851" width="148" height="32" fill="#334718"/>
  <rect x="262" y="1788" width="108" height="43" fill="#608021"/>
  <rect x="1706" y="1751" width="175" height="26" fill="#ACC4F2"/>
  <rect x="930" y="2433" width="71" height="64" fill="#334718"/>
  <rect x="30" y="2388" width="271" height="16" fill="#577616"/>
  <rect x="1544" y="1767" width="90" height="48" fill="#334718"/>
  <rect x="3510" y="1988" width="127" height="30" fill="#678970"/>
  <rect x="789" y="2548" width="98" height="38" fill="#334718"/>
  <rect x="1001" y="2436" width="56" height="61" fill="#334718"/>
  <rect x="4057" y="2269" width="39" height="87" fill="#577616"/>
  <rect x="1365" y="1735" width="203" height="16" fill="#ACC4F2"/>
  <rect x="3926" y="2241" width="131" height="24" fill="#334718"/>
  <rect x="4057" y="1998" width="39" height="80" fill="#2C559C"/>
  <rect x="193" y="2514" width="192" height="16" fill="#30450D"/>
  <rect x="3774" y="1972" width="159" height="16" fill="#2C559C"/>
  <rect x="2241" y="2434" width="54" height="45" fill="#577616"/>
  <rect x="2374" y="1831" width="104" height="20" fill="#ACC4F2"/>
  <rect x="3962" y="1988" width="69" height="30" fill="#678970"/>
  <rect x="930" y="2404" width="71" height="29" fill="#577616"/>
  <rect x="827" y="2514" width="60" height="34" fill="#30450D"/>
  <rect x="1444" y="1751" width="124" height="16" fill="#678970"/>
  <rect x="851" y="2497" width="113" height="17" fill="#334718"/>
  <rect x="204" y="1768" width="58" height="33" fill="#ACC4F2"/>
  <rect x="2579" y="2442" width="33" height="56" fill="#577616"/>
  <rect x="262" y="1768" width="92" height="20" fill="#ACC4F2"/>
  <rect x="1001" y="2404" width="56" height="32" fill="#577616"/>
  <rect x="2579" y="2388" width="33" height="54" fill="#608021"/>
  <rect x="204" y="1801" width="58" height="30" fill="#608021"/>
  <rect x="1837" y="1793" width="44" height="38" fill="#334718"/>
  <rect x="1385" y="1815" width="102" height="16" fill="#608021"/>
  <rect x="2241" y="2405" width="54" height="29" fill="#608021"/>
  <rect x="55" y="1814" width="80" height="17" fill="#678970"/>
  <rect x="704" y="2514" width="85" height="16" fill="#30450D"/>
  <rect x="964" y="2497" width="77" height="17" fill="#30450D"/>
  <rect x="3980" y="1972" width="77" height="16" fill="#ACC4F2"/>
  <rect x="2478" y="1831" width="38" height="31" fill="#ACC4F2"/>
  <rect x="135" y="1814" width="69" height="17" fill="#608021"/>
  <rect x="1661" y="1751" width="45" height="26" fill="#5185EF"/>
  <rect x="3239" y="1972" width="70" height="16" fill="#334718"/>
  <rect x="3705" y="1972" width="69" height="16" fill="#5185EF"/>
  <rect x="4057" y="2562" width="39" height="27" fill="#577616"/>
  <rect y="1814" width="55" height="17" fill="#5185EF"/>
  <rect x="1487" y="1815" width="57" height="16" fill="#577616"/>
  <rect x="1735" y="1831" width="27" height="33" fill="#334718"/>
  <rect x="2478" y="1862" width="38" height="21" fill="#334718"/>
  <rect x="4031" y="1988" width="26" height="30" fill="#2C559C"/>
  <rect x="1586" y="1815" width="48" height="16" fill="#334718"/>
  <rect x="1634" y="1751" width="27" height="26" fill="#678970"/>
  <rect x="1515" y="1767" width="29" height="24" fill="#334718"/>
  <rect x="1515" y="1791" width="29" height="24" fill="#577616"/>
  <rect x="1385" y="1751" width="43" height="16" fill="#334718"/>
  <rect x="1544" y="1815" width="42" height="16" fill="#577616"/>
  <rect x="3332" y="1972" width="42" height="16" fill="#678970"/>
  <rect x="4031" y="2216" width="26" height="25" fill="#577616"/>
  <rect x="1735" y="1864" width="27" height="19" fill="#577616"/>
  <rect x="3905" y="2241" width="21" height="24" fill="#577616"/>
  <rect x="1603" y="1751" width="31" height="16" fill="#ACC4F2"/>
  <rect x="3949" y="1972" width="31" height="16" fill="#5185EF"/>
  <rect width="16" height="30" fill="#5185EF"/>
  <rect y="2388" width="30" height="16" fill="#334718"/>
  <rect x="1013" y="1767" width="25" height="19" fill="#577616"/>
  <rect x="2351" y="1831" width="23" height="20" fill="#5185EF"/>
  <rect x="1837" y="1777" width="28" height="16" fill="#678970"/>
  <rect x="2313" y="1831" width="22" height="20" fill="#678970"/>
  <rect y="30" width="16" height="25" fill="#ACC4F2"/>
  <rect x="4057" y="1978" width="20" height="20" fill="#5185EF"/>
  <rect x="1374" y="2514" width="16" height="25" fill="#334718"/>
  <rect x="805" y="2514" width="22" height="18" fill="#334718"/>
  <rect x="3889" y="2241" width="16" height="24" fill="#334718"/>
  <rect x="4077" y="1978" width="19" height="20" fill="#2C559C"/>
  <rect x="3309" y="1972" width="23" height="16" fill="#678970"/>
  <rect x="805" y="2532" width="22" height="16" fill="#30450D"/>
  <rect x="1013" y="1751" width="21" height="16" fill="#608021"/>
  <rect x="172" y="2514" width="21" height="16" fill="#334718"/>
  <rect x="354" y="1768" width="16" height="20" fill="#678970"/>
  <rect x="2335" y="1831" width="16" height="20" fill="#5185EF"/>
  <rect x="1038" y="1767" width="16" height="19" fill="#608021"/>
  <rect x="1568" y="1751" width="18" height="16" fill="#5185EF"/>
  <rect x="789" y="2514" width="16" height="18" fill="#334718"/>
  <rect x="1374" y="2539" width="16" height="18" fill="#30450D"/>
  <rect x="1348" y="1735" width="17" height="16" fill="#5185EF"/>
  <rect x="1586" y="1751" width="17" height="16" fill="#5185EF"/>
  <rect x="2461" y="1851" width="17" height="16" fill="#678970"/>
  <rect x="2461" y="1867" width="17" height="16" fill="#334718"/>
  <rect x="1041" y="2497" width="16" height="17" fill="#334718"/>
  <rect x="1428" y="1751" width="16" height="16" fill="#608021"/>
  <rect x="1865" y="1777" width="16" height="16" fill="#5185EF"/>
  <rect x="3933" y="1972" width="16" height="16" fill="#5185EF"/>
  <rect x="789" y="2532" width="16" height="16" fill="#30450D"/>
</svg>
