<?xml version="1.0" encoding="UTF-8"?>
<svg xmlns="http://www.w3.org/2000/svg" width="4096" height="3294" viewBox="0 0 4096 3294">
  <path d="M0 0 L1196 0 L1197 9 L1208 10 L1212 17 L1243 20 L1235 35 L1247 39 L1247 46 L1270 45 L1269 64 L1288 82 L1291 92 L1298 70 L1306 70 L1317 61 L1338 86 L1341 80 L1337 77 L1346 78 L1343 85 L1355 87 L1346 93 L1340 88 L1340 99 L1352 105 L1349 109 L1360 109 L1356 113 L1360 123 L1371 125 L1382 119 L1392 127 L1402 126 L1409 135 L1419 134 L1425 147 L1436 153 L1475 145 L1475 149 L1483 148 L1495 159 L1496 155 L1505 159 L1503 152 L1508 156 L1536 153 L1541 158 L1548 146 L1565 142 L1570 154 L1567 165 L1576 174 L1586 162 L1590 165 L1593 159 L1597 160 L1597 154 L1603 154 L1606 146 L1616 147 L1611 139 L1598 139 L1595 132 L1593 136 L1586 122 L1600 120 L1605 128 L1610 120 L1615 122 L1618 111 L1642 114 L1643 118 L1658 122 L1664 133 L1671 127 L1679 129 L1670 136 L1670 143 L1677 141 L1676 148 L1667 145 L1670 160 L1679 150 L1674 159 L1682 159 L1682 166 L1696 166 L1698 159 L1708 159 L1710 169 L1730 167 L1736 174 L1748 170 L1759 183 L1758 189 L1753 188 L1757 193 L1766 188 L1762 178 L1776 173 L1781 181 L1780 190 L1792 193 L1797 204 L1803 206 L1795 211 L1777 207 L1776 221 L1783 222 L1784 227 L1795 228 L1795 220 L1806 220 L1812 230 L1828 232 L1833 234 L1834 241 L1850 244 L1861 258 L1872 262 L1878 259 L1891 271 L1897 269 L1894 277 L1900 291 L1895 289 L1895 294 L1912 300 L1914 307 L1919 302 L1924 315 L1931 310 L1935 312 L1934 318 L1938 318 L1944 310 L1956 314 L1953 319 L1962 316 L1966 320 L1966 328 L1959 331 L1969 331 L1972 339 L1983 337 L1982 341 L2004 342 L2008 337 L2009 344 L2018 345 L2024 357 L2022 373 L2010 366 L2007 373 L2002 363 L1994 375 L1994 386 L1996 381 L2002 383 L2003 376 L2009 380 L2000 386 L2010 393 L2006 400 L2005 395 L1998 395 L2002 406 L1976 403 L1973 393 L1968 398 L1956 392 L1959 405 L1968 404 L1968 412 L1971 411 L1966 429 L1958 423 L1960 429 L1954 425 L1948 438 L1913 436 L1911 431 L1908 434 L1900 428 L1900 434 L1918 453 L1923 449 L1930 456 L1938 456 L1943 461 L1940 465 L1972 463 L1983 470 L1983 481 L1988 477 L1984 474 L2005 475 C2012.5 477 2023 482.5 2029 486 L2042 497 L2035 501 L2038 509 L2029 502 L2028 507 L2024 505 L2019 497 L2014 500 L2013 495 L2007 499 L2012 506 L2030 508 L2031 517 L2041 514 L2037 522 L2042 519 L2046 523 L2037 524 L2037 531 L2041 527 L2052 529 L2052 524 L2059 522 L2074 530 C2081 532 2095.5 532.5 2102 535 C2108.5 537.5 2107 542 2113 544 L2137 548 L2138 565 L2126 567 L2124 572 L2114 572 L2108 565 L2077 563 L2076 574 L2092 577 L2087 584 L2078 581 L2079 594 L2101 592 L2108 604 L2117 606 L2118 613 L2104 611 L2108 618 C2117.5 609.5 2144 657 2155 647 L2165 661 L2174 658 L2172 662 L2178 666 L2183 663 L2181 670 L2186 669 L2186 675 L2207 676 L2217 682 L2223 679 L2227 689 C2199.5 698.5 2302.5 685 2293 708 C2300 711 2310.5 711.5 2316 713 L2326 718 L2325 722 L2333 722 C2345 747 2366.5 711.5 2419 756 L2427 770 L2442 775 L2450 773 L2476 789 L2493 789 L2496 795 L2508 792 L2505 782 L2512 782 L2511 792 L2516 791 L2514 782 L2518 780 L2513 774 L2517 772 L2503 771 L2508 762 L2499 760 L2498 752 L2488 747 L2483 734 L2464 732 L2456 721 L2451 723 L2450 718 L2441 717 L2437 703 L2435 709 L2428 706 L2434 705 L2434 698 L2427 700 L2424 695 L2413 699 L2417 693 L2424 693 L2431 682 L2406 679 L2400 690 L2404 693 L2402 699 L2395 690 L2381 697 L2361 697 L2360 693 L2353 694 L2353 687 L2333 681 L2339 674 L2330 675 L2324 669 L2321 673 L2316 663 L2300 658 L2298 653 L2304 654 L2306 639 L2307 645 L2311 642 L2324 647 L2328 663 L2331 661 L2342 669 L2343 665 L2347 669 L2351 665 L2378 663 L2389 670 L2390 660 L2394 659 L2385 653 L2382 642 L2376 642 L2373 633 L2365 635 L2370 629 L2369 619 L2365 622 L2362 618 L2361 623 L2352 619 L2353 614 L2347 614 L2333 595 C2327.5 590.5 2321.5 593.5 2313 588 C2304.5 582.5 2289.5 566.5 2282 562 L2267 562 L2249 536 L2252 530 L2245 526 L2238 507 L2242 502 L2242 496 L2237 495 L2242 489 L2235 482 L2238 470 L2243 474 L2248 467 L2247 473 L2258 482 L2255 495 L2269 498 L2272 492 L2274 498 L2281 496 L2272 465 L2280 465 L2299 473 L2298 480 L2303 480 L2306 488 L2318 485 L2317 491 L2323 491 L2322 495 L2332 501 L2334 515 L2339 516 L2340 522 L2360 526 L2365 522 L2366 526 L2370 521 L2374 523 L2370 526 L2377 525 L2385 535 L2408 541 L2408 546 L2417 542 L2422 548 L2424 540 L2420 542 L2417 535 L2424 535 L2427 520 L2436 521 L2439 514 L2445 525 L2451 513 L2446 513 L2448 509 L2436 495 L2431 497 L2428 487 L2417 487 L2413 474 L2424 473 L2427 477 L2429 472 L2434 475 L2433 483 L2439 481 L2439 486 L2447 482 L2452 487 L2470 487 L2459 482 L2464 477 L2457 478 L2456 467 L2451 469 L2454 461 L2444 463 L2437 455 L2441 450 L2426 443 L2423 431 L2405 420 L2403 408 L2395 402 L2398 398 L2392 399 L2393 382 L2399 390 L2407 388 L2405 396 L2426 392 L2421 387 L2430 386 L2424 378 L2431 380 L2431 386 L2442 380 L2443 376 L2435 373 L2436 367 L2426 367 L2429 364 L2419 351 L2422 347 L2417 345 L2415 352 L2409 338 L2400 333 L2402 328 L2391 323 L2391 316 L2380 317 L2384 311 L2378 314 L2380 308 L2372 309 L2365 297 L2356 298 L2358 290 L2352 293 L2351 286 L2347 289 L2347 284 L2335 279 L2338 276 L2328 274 L2318 248 L2301 238 L2301 233 L2294 233 L2293 226 L2278 222 L2279 217 L2273 217 L2271 210 L2267 213 L2254 195 L2254 199 L2244 199 L2238 194 L2246 192 L2243 186 L2236 193 L2236 189 L2227 186 L2229 181 L2220 181 L2218 174 L2211 174 L2217 183 L2210 186 L2206 179 L2203 183 L2195 182 L2198 188 L2194 192 L2176 181 L2174 170 L2173 179 L2168 177 L2172 182 L2168 183 L2166 172 L2161 175 L2160 169 L2170 175 L2173 168 L2167 163 L2157 166 L2152 162 L2151 169 L2147 169 L2149 163 L2145 162 L2153 158 L2152 149 L2149 157 L2134 156 L2128 152 L2128 143 L2124 145 L2116 134 L2111 139 L2113 132 L2109 133 L2108 127 L2093 131 L2098 135 L2094 139 L2100 138 L2098 143 L2104 138 L2108 142 L2093 148 L2088 144 L2093 141 L2088 139 L2091 133 L2086 131 L2083 139 L2084 129 L2077 124 L2072 129 L2068 114 L2063 116 L2061 125 L2056 120 L2061 113 L2048 116 L2023 101 L2019 106 L2009 100 L2010 94 L1991 88 L1978 63 C1972 56 1958.5 51.5 1954 47 L1950 36 L1926 29 L1920 22 L1913 23 L1919 16 L1912 20 L1911 13 L1905 11 L1906 0 L2250 0 L2265 7 L2271 3 L2269 8 L2275 4 L2275 9 L2286 10 L2286 15 L2293 18 L2297 16 L2304 30 L2306 24 L2313 44 L2318 40 L2316 59 L2314 53 L2310 56 L2309 51 L2304 51 L2306 60 L2295 57 L2301 64 L2294 63 L2294 68 L2283 70 L2284 77 L2293 80 L2289 87 L2295 97 L2300 95 L2307 101 L2311 114 L2317 111 L2318 119 L2331 124 L2329 130 L2338 130 L2337 138 L2354 145 L2356 159 L2360 157 L2358 164 L2362 161 L2367 172 L2364 178 L2374 179 L2375 184 L2382 175 L2387 187 L2395 190 L2395 197 L2403 202 L2408 199 L2410 204 L2413 199 L2416 208 L2418 199 L2419 207 L2427 208 L2431 216 L2434 211 L2451 217 L2449 211 L2455 211 L2456 218 L2462 220 L2457 223 L2472 228 L2484 228 L2483 221 L2480 224 L2475 216 L2480 216 L2460 195 L2464 192 L2452 171 L2447 170 L2440 147 C2433 137 2412.5 119.5 2406 111 C2399.5 102.5 2402 101 2402 96 L2405 81 L2418 81 L2417 75 L2409 71 L2410 55 L2417 58 L2419 45 L2433 43 L2426 42 L2430 30 L2447 42 L2439 31 L2444 22 L2441 16 L2447 10 L2451 11 L2448 18 L2457 17 L2457 26 L2470 32 L2464 38 L2469 38 L2468 42 L2483 35 L2488 37 L2489 44 L2500 47 L2506 38 L2522 40 L2522 34 L2529 34 L2530 28 L2544 36 L2543 43 L2552 44 L2563 53 L2599 43 L2614 57 C2619.5 60.5 2626.5 60 2631 63 L2641 76 L2656 72 L2668 78 L2691 55 L2690 46 L2705 33 C2708.5 28 2709.5 19.5 2712 15 L2720 7 L2727 7 L2729 0 L2764 0 L2772 12 L2791 5 L2797 7 L2801 0 L2828 0 L2836 13 L2836 31 L2826 27 L2821 42 L2827 44 L2825 39 L2829 38 L2830 44 L2839 48 L2837 60 L2854 83 L2860 108 L2865 108 L2869 121 L2882 125 L2885 135 L2896 139 L2899 153 L2912 155 L2919 151 L2928 166 L2928 159 L2943 164 L2939 171 L2930 169 L2933 188 L2941 183 L2939 190 L2952 193 L2949 180 L2954 180 L2959 188 L2979 188 L2987 178 L3011 177 L3017 163 L3025 167 L3030 162 L3048 165 L3056 160 L3068 169 L3077 163 L3092 165 L3088 169 L3096 171 L3108 168 L3121 212 L3143 218 L3151 228 L3157 228 L3158 234 L3164 230 L3166 221 L3177 215 C3186 214.5 3209 218.5 3220 217 C3231 215.5 3237.5 207.5 3244 206 L3258 207 L3261 202 L3265 206 L3267 202 L3283 203 L3293 196 L3292 188 L3303 179 L3304 184 L3322 191 L3330 206 L3350 202 L3343 191 L3345 186 L3355 187 L3355 202 L3363 201 L3360 197 L3367 194 L3386 202 L3407 198 L3414 183 L3424 184 L3425 188 L3433 189 L3433 196 L3421 204 L3419 215 L3426 233 L3443 240 L3445 246 L3441 262 L3430 264 L3430 277 L3438 284 L3434 294 L3406 303 L3392 287 L3373 277 L3372 282 L3357 277 L3348 293 L3337 290 L3333 296 L3319 291 L3315 302 L3303 304 L3296 315 L3295 334 L3290 338 L3294 341 L3290 349 C3290 353 3291 361 3294 366 L3308 378 L3301 380 L3295 375 L3285 383 L3280 377 L3268 376 L3265 382 L3246 380 L3244 386 L3265 386 C3274 387.5 3291.5 393 3298 396 C3304.5 399 3303.5 400.5 3305 405 L3306 422 L3326 416 L3349 430 L3339 437 L3334 449 L3325 449 L3311 437 L3311 441 L3305 440 L3297 449 L3296 456 L3270 460 L3270 468 L3299 483 C3305.5 485.5 3304.5 481 3310 482 C3315.5 483 3326.5 488 3331 490 L3337 495 L3337 511 L3345 527 L3369 525 C3376 526 3379 532.5 3386 534 L3411 533 L3423 545 L3444 543 L3451 564 L3460 564 L3453 574 L3461 571 L3463 580 L3479 585 L3490 602 L3497 593 L3505 595 L3500 599 L3504 602 L3513 594 L3524 594 L3528 604 L3535 597 L3542 606 L3555 596 L3553 591 L3580 593 L3601 580 L3603 569 L3626 559 L3622 544 L3637 532 L3634 527 L3640 522 L3651 525 L3653 516 L3645 511 L3649 508 L3648 498 L3638 498 L3639 484 L3631 480 L3617 490 L3619 493 L3604 494 L3602 486 L3584 471 L3584 455 L3572 445 L3577 439 L3587 446 L3598 436 L3639 435 L3646 443 L3641 460 L3662 460 L3676 477 L3681 473 L3681 477 L3687 475 L3686 480 L3698 478 L3710 484 L3717 477 L3728 476 L3729 481 L3738 485 L3734 489 L3737 505 L3752 508 L3753 522 L3761 527 L3772 527 L3782 518 L3793 525 L3809 525 L3822 513 L3822 507 L3856 494 L3867 500 L3865 522 L3874 515 L3883 515 L3878 518 L3888 518 L3888 525 L3946 512 L3949 501 L3959 497 L3968 502 L3964 511 L3952 512 L3960 521 L3969 521 L3972 502 L3990 498 L3993 504 L3998 502 L4002 506 L4006 518 L4019 518 L4025 524 L4031 522 L4033 527 L4056 523 L4053 518 L4059 508 L4073 499 L4069 495 L4076 496 L4074 504 L4078 501 L4079 506 L4096 505 L4096 688 L4085 688 L4082 701 L4094 722 C4096.5 729.5 4096.5 738.5 4096 746 L4091 767 L4076 775 L4071 783 L4072 790 L4082 794 L4079 798 L4096 802 L4095 902 L4068 891 L4067 881 L4051 879 L4043 861 L4042 867 L4023 863 L4011 852 L4000 857 L3977 842 C3969 839.5 3964 843.5 3951 841 L3899 826 L3885 834 L3876 831 L3873 839 L3849 830 L3843 831 L3843 838 L3833 833 L3817 840 C3813 841 3813 841.5 3810 840 C3807 838.5 3805.5 832.5 3799 831 L3770 831 L3760 841 L3764 852 L3736 850 L3735 855 L3713 862 L3699 877 L3711 881 C3715.5 881 3722 876.5 3726 876 L3735 878 L3740 899 L3742 895 L3751 900 L3746 909 L3726 920 L3724 930 L3699 953 L3701 965 L3711 974 L3711 991 L3720 992 L3721 985 L3726 983 L3735 995 L3734 1000 L3739 1000 L3723 1019 L3721 1034 L3731 1048 L3735 1046 L3735 1051 L3742 1049 L3742 1053 L3750 1054 L3748 1049 L3760 1043 L3764 1049 L3773 1039 L3788 1040 L3802 1033 L3803 1029 L3793 1026 L3794 1016 L3780 1009 L3775 997 L3792 995 L3800 1004 L3797 1015 L3806 1017 L3809 1023 L3837 1023 C3844.5 1022 3851 1019.5 3855 1018 L3862 1014 L3861 1010 L3871 1007 L3866 992 L3851 979 L3851 973 L3861 972 L3855 977 L3862 980 L3869 974 L3867 979 L3873 981 L3869 991 L3877 992 L3869 1000 L3876 1002 L3881 991 L3872 980 L3872 973 L3882 977 L3881 990 L3888 986 L3896 989 L3899 984 L3908 985 L3911 992 L3931 988 L3937 991 L3931 982 L3943 983 L3941 976 L3948 970 L3945 959 L3953 961 L3952 973 L3963 980 L3970 974 L3970 988 L3978 997 L4013 986 L4020 991 C4026.5 992 4043 991 4053 993 C4063 995 4074 1001.5 4081 1003 L4096 1001 L4096 1250 L4076 1239 L4072 1255 L4062 1255 L4064 1250 L4047 1220 L4031 1210 L4037 1207 L4035 1203 L4028 1207 L4011 1195 L3994 1196 L3988 1190 L3978 1193 L3966 1189 L3958 1198 L3944 1199 L3922 1223 L3926 1231 L3931 1231 L3931 1226 L3938 1227 L3942 1239 L3946 1237 L3957 1244 C3963.5 1245 3977.5 1241.5 3985 1243 L4001 1254 L4012 1250 L4020 1260 L4030 1259 L4035 1251 L4070 1260 L4077 1267 L4072 1270 L4074 1279 L4081 1280 L4088 1291 L4096 1288 L4096 1305 L4093 1307 L4095 1299 L4090 1296 L4092 1301 L4085 1299 L4084 1303 L4089 1306 L4088 1314 L4096 1320 L4096 1383 L4087 1384 L4096 1390 L4096 1514 L4081 1506 L4064 1507 L4066 1504 L4056 1503 L4050 1495 L4045 1500 L4030 1499 L4031 1503 L4025 1505 L4027 1512 L4021 1513 C4016.5 1511.5 4007.5 1505 3999 1503 C3990.5 1501 3977 1502.5 3971 1501 L3962 1494 L3932 1499 L3920 1490 L3928 1483 L3923 1484 L3919 1475 L3899 1476 L3888 1492 L3880 1494 L3852 1481 L3823 1491 L3818 1497 L3785 1486 L3783 1478 L3777 1475 L3779 1471 L3770 1471 L3768 1464 L3755 1457 L3765 1456 L3760 1452 L3765 1446 L3757 1445 L3760 1439 L3766 1444 L3764 1433 L3760 1432 L3765 1426 L3760 1420 L3754 1421 L3754 1426 L3748 1424 L3751 1418 L3741 1418 L3736 1407 L3742 1405 L3742 1395 L3747 1400 L3748 1393 L3756 1393 L3759 1386 L3760 1393 L3765 1392 L3773 1385 L3770 1379 L3776 1378 L3775 1385 L3780 1383 L3780 1387 L3787 1388 L3790 1384 L3780 1382 L3779 1378 L3785 1379 L3789 1371 L3791 1375 L3786 1380 L3793 1383 L3791 1375 L3810 1379 L3808 1375 L3813 1370 L3821 1369 L3819 1364 L3811 1364 L3817 1357 L3821 1363 L3822 1350 L3810 1359 L3802 1351 L3807 1350 L3804 1344 L3808 1344 L3805 1326 L3811 1325 L3810 1330 L3816 1324 L3820 1329 L3831 1329 L3829 1324 L3835 1326 L3840 1316 L3844 1319 L3849 1314 L3846 1308 L3858 1309 L3849 1299 L3843 1301 L3833 1293 L3824 1293 L3819 1301 L3800 1295 L3801 1299 L3793 1298 L3790 1302 L3795 1306 L3788 1306 L3789 1298 L3735 1298 L3733 1306 L3737 1308 L3750 1298 L3750 1304 L3765 1303 L3767 1308 L3772 1304 L3781 1311 L3793 1311 L3793 1321 L3800 1326 L3794 1329 L3792 1323 L3791 1337 L3787 1337 L3787 1330 L3779 1336 L3779 1332 L3760 1335 L3766 1328 L3760 1320 L3756 1334 L3754 1328 L3744 1328 L3743 1322 L3732 1326 L3735 1320 L3718 1309 L3708 1312 L3695 1306 L3699 1311 L3694 1311 L3690 1305 L3696 1296 L3687 1297 L3687 1310 L3680 1310 L3681 1307 L3668 1306 L3667 1301 L3662 1304 L3658 1294 L3649 1301 L3648 1296 L3643 1299 L3637 1292 L3631 1298 L3633 1304 L3626 1305 L3624 1301 L3615 1306 L3615 1311 L3590 1311 L3587 1316 L3577 1308 L3574 1311 L3572 1303 L3559 1308 L3559 1299 L3555 1303 L3554 1294 L3539 1291 L3540 1286 L3533 1289 L3533 1281 L3528 1277 L3532 1273 L3521 1267 C3498.5 1271.5 3520 1260 3472 1254 L3439 1262 L3430 1257 C3426 1256.5 3419.5 1260 3414 1259 C3408.5 1258 3403.5 1252.5 3397 1251 L3374 1250 L3372 1236 L3386 1230 L3373 1216 L3363 1217 L3345 1204 L3354 1199 L3349 1197 L3350 1184 L3345 1181 L3350 1173 L3338 1168 C3322.5 1156.5 3345.5 1098.5 3317 1107 L3302 1088 L3296 1089 L3283 1075 L3263 1071 L3254 1053 C3249 1048 3238.5 1044 3233 1042 L3222 1041 L3216 1052 L3201 1059 L3195 1040 L3186 1041 L3162 1023 C3156 1020 3160.5 1026 3150 1023 C3139.5 1020 3110 1008 3100 1005 L3090 1005 L3086 1011 L3040 1014 C3028.5 1013.5 3023 1011 3018 1009 L3009 1001 L2998 1004 L2988 997 L2980 1001 L2984 1010 L2965 1014 L2954 1029 L2937 1016 L2926 1024 L2924 1045 L2917 1044 L2909 1063 L2919 1075 L2914 1098 L2897 1110 C2889 1112 2875 1107 2867 1109 L2849 1123 L2837 1121 L2813 1148 L2770 1139 L2765 1141 L2762 1151 L2768 1154 L2767 1146 L2772 1144 L2789 1158 L2800 1159 L2800 1163 L2820 1171 C2826 1173 2831.5 1174 2836 1174 L2846 1170 L2850 1176 L2848 1187 L2856 1189 L2862 1197 L2900 1198 L2907 1192 L2922 1192 L2921 1188 L2930 1187 L2934 1181 L2951 1181 L2952 1190 L2965 1197 C2972.5 1198 2988.5 1195.5 2996 1197 L3010 1206 L3020 1203 L3040 1208 L3040 1202 L3053 1206 L3061 1200 L3073 1201 C3076.5 1202.5 3079.5 1204.5 3082 1209 L3088 1228 L3093 1227 L3090 1217 L3098 1225 L3104 1224 L3121 1204 L3147 1203 L3140 1191 L3140 1178 L3128 1167 L3134 1157 L3164 1155 C3214 1154 3187 1188 3237 1184 L3243 1191 L3250 1185 L3268 1188 L3280 1198 L3283 1189 L3289 1188 L3295 1200 L3288 1210 L3283 1209 L3284 1221 L3294 1223 L3299 1228 L3295 1232 L3301 1232 L3303 1238 L3297 1246 L3295 1240 L3270 1231 C3262 1229.5 3252.5 1228.5 3246 1230 L3230 1239 L3223 1233 L3196 1227 L3195 1236 L3173 1237 L3167 1231 L3168 1237 L3163 1239 C3158 1238 3148 1232.5 3139 1232 C3130 1231.5 3117 1236 3110 1235 L3097 1227 L3089 1239 L3085 1238 L3085 1244 L3067 1247 C3061.5 1246.5 3055.5 1243.5 3052 1241 L3047 1233 L3008 1245 L2994 1230 L2985 1239 L2974 1242 L2972 1248 L2964 1247 L2956 1257 L2950 1273 L2959 1290 L2943 1288 L2939 1292 L2952 1301 L2949 1308 L2945 1307 L2943 1323 L2949 1329 L2953 1322 L2967 1328 L2941 1340 L2942 1345 L2949 1346 L2949 1352 L2945 1350 L2938 1357 L2937 1370 L2930 1370 L2933 1366 L2928 1361 L2921 1366 L2910 1364 L2907 1352 L2892 1345 L2892 1356 L2898 1361 L2896 1367 L2888 1365 L2890 1370 L2885 1370 L2874 1366 L2876 1373 L2870 1375 L2867 1369 L2858 1366 L2849 1346 C2845.5 1341 2842 1337.5 2837 1336 C2832 1334.5 2824 1338 2818 1336 L2802 1323 L2805 1313 L2787 1279 L2796 1282 L2798 1269 L2807 1267 L2812 1259 L2829 1264 C2834.5 1264.5 2840.5 1264 2845 1262 L2856 1252 L2846 1246 L2846 1257 L2838 1252 L2830 1254 L2831 1248 L2843 1246 L2836 1243 L2834 1236 L2829 1240 L2808 1237 L2802 1228 L2806 1220 L2792 1218 L2791 1210 L2774 1213 L2776 1218 L2791 1218 L2760 1247 L2763 1254 L2783 1252 L2796 1254 L2796 1259 L2776 1263 L2770 1269 L2739 1261 L2732 1267 L2701 1271 L2701 1277 L2691 1286 L2683 1286 L2688 1321 L2683 1326 L2664 1327 L2659 1341 L2647 1347 L2656 1365 L2656 1375 L2642 1382 L2643 1400 L2653 1409 L2646 1414 L2628 1396 L2617 1394 L2603 1375 L2584 1373 L2571 1382 L2569 1394 L2563 1394 L2562 1388 L2553 1388 L2553 1400 L2542 1405 L2521 1391 L2512 1390 L2514 1386 L2519 1388 L2520 1375 L2526 1375 L2522 1366 L2500 1356 C2493.5 1354.5 2487 1357 2482 1356 L2470 1350 L2459 1353 L2454 1338 L2415 1336 L2409 1325 L2395 1325 L2385 1333 L2345 1325 L2339 1334 L2311 1325 C2305 1322 2305.5 1321 2304 1317 L2301 1302 L2291 1301 L2271 1282 L2266 1282 L2266 1286 L2261 1282 L2261 1271 C2259.5 1267 2253 1261.5 2251 1257 L2250 1245 L2235 1238 L2227 1241 L2226 1288 L2222 1277 L2218 1278 L2217 1266 C2215.5 1262 2210 1257 2209 1253 L2210 1243 L2202 1236 L2193 1207 L2174 1206 L2167 1203 L2166 1197 L2151 1200 L2139 1189 L2125 1192 L2115 1181 L2107 1185 L2076 1178 L2063 1190 L2051 1184 L2048 1191 L2030 1179 L2028 1186 L2024 1186 L1985 1176 L1951 1194 L1918 1183 L1912 1189 L1903 1189 L1901 1197 L1891 1189 L1872 1194 L1870 1183 L1864 1186 L1861 1178 L1856 1179 L1855 1186 L1837 1184 L1831 1178 L1836 1172 L1842 1177 L1843 1167 L1854 1160 L1841 1148 C1837.5 1146 1836.5 1145.5 1832 1147 L1815 1156 L1817 1161 L1805 1168 L1811 1173 L1811 1180 L1818 1182 L1818 1196 L1811 1199 L1801 1192 L1798 1196 L1791 1193 L1789 1198 L1782 1199 L1781 1209 L1775 1210 L1766 1202 L1756 1232 L1768 1230 L1767 1224 L1773 1219 L1796 1216 L1793 1230 L1782 1228 L1790 1244 L1789 1252 L1795 1254 L1798 1247 L1806 1248 L1813 1258 L1827 1258 L1813 1248 L1820 1246 L1824 1237 L1831 1237 L1829 1264 L1833 1262 L1844 1273 L1840 1281 L1835 1278 L1826 1284 L1823 1299 L1829 1300 L1834 1312 L1842 1312 L1846 1301 L1859 1306 L1862 1313 L1883 1319 L1885 1330 L1893 1331 L1899 1339 L1902 1354 L1914 1357 L1910 1366 L1915 1366 L1916 1372 L1920 1368 L1920 1374 L1928 1378 L1937 1370 L1950 1385 L1955 1385 L1955 1396 L1948 1400 L1955 1410 L1966 1412 L1973 1406 L1975 1414 L1985 1407 L2046 1422 L2065 1420 L2069 1413 L2078 1412 L2090 1423 L2093 1413 L2122 1405 C2128.5 1404 2129.5 1404 2133 1406 L2144 1417 L2157 1418 L2186 1405 L2201 1419 L2234 1416 L2241 1420 L2244 1413 L2230 1410 L2231 1405 L2238 1405 L2238 1399 L2224 1396 L2224 1383 L2233 1379 L2238 1393 L2245 1389 L2250 1369 L2246 1350 L2254 1346 L2296 1401 L2300 1399 L2305 1405 L2315 1403 L2316 1409 L2326 1407 L2333 1413 L2342 1407 L2347 1412 L2346 1419 L2365 1419 L2366 1423 L2383 1429 L2389 1423 L2390 1431 L2404 1431 L2405 1436 L2413 1437 L2419 1432 L2431 1442 L2438 1441 L2433 1449 L2424 1449 L2424 1455 L2413 1455 L2404 1445 L2385 1442 L2384 1466 L2379 1474 L2395 1483 L2385 1483 L2383 1488 L2379 1485 L2354 1489 L2355 1484 L2343 1490 L2338 1490 L2338 1486 L2329 1490 L2319 1484 L2288 1486 L2280 1480 L2253 1475 L2249 1482 L2237 1475 L2218 1484 L2214 1484 L2217 1476 L2211 1477 L2203 1490 L2197 1484 L2186 1491 L2200 1499 L2207 1497 L2205 1503 L2217 1507 L2218 1512 L2233 1513 C2240 1515.5 2254 1524 2261 1526 C2268 1528 2271 1523 2276 1524 L2290 1531 L2300 1525 L2350 1533 C2351.5 1526 2412.5 1532 2417 1543 L2518 1559 L2521 1555 L2524 1559 L2542 1559 L2547 1565 L2571 1563 L2577 1569 L2591 1568 L2592 1573 L2622 1573 L2623 1578 L2631 1577 L2633 1583 L2644 1583 L2649 1590 L2650 1584 L2658 1588 L2653 1580 L2662 1585 L2657 1594 L2681 1591 L2689 1596 L2695 1592 L2696 1597 L2711 1591 L2716 1597 L2721 1594 L2724 1600 L2739 1595 L2740 1601 L2745 1594 L2744 1599 L2752 1598 L2750 1606 L2768 1594 C2774 1592 2781.5 1593 2787 1594 L2801 1601 L2805 1597 L2805 1603 L2822 1603 L2822 1609 L2829 1607 L2830 1614 L2835 1608 L2834 1613 L2839 1616 L2846 1610 L2850 1615 L2853 1610 L2865 1613 L2870 1604 L2873 1613 L2868 1610 L2866 1617 L2874 1613 L2875 1618 L2880 1618 L2884 1613 L2894 1618 L2897 1613 L2899 1618 L2892 1623 L2898 1623 L2897 1628 L2901 1626 L2902 1630 L2918 1630 L2918 1635 L2924 1630 L2927 1638 L2936 1633 L2944 1635 L2943 1643 L2948 1643 L2947 1639 L2972 1646 L2992 1643 L2987 1645 L2992 1649 L3017 1642 L3042 1643 L3043 1639 L3068 1644 L3068 1639 L3076 1649 L3084 1643 L3089 1648 L3095 1643 L3105 1648 L3126 1644 L3127 1650 L3135 1655 L3130 1646 L3137 1650 L3143 1644 L3153 1643 L3155 1648 L3163 1638 L3165 1643 L3177 1641 L3174 1633 L3179 1637 L3178 1632 L3183 1632 L3181 1640 L3185 1642 L3187 1638 L3189 1643 L3192 1630 L3203 1635 L3216 1629 L3227 1633 L3229 1628 L3235 1633 L3230 1635 L3235 1637 L3238 1629 L3241 1632 L3246 1628 L3253 1633 L3260 1627 L3264 1636 L3269 1632 L3295 1632 L3294 1637 L3303 1637 L3305 1633 L3308 1639 L3310 1634 L3323 1638 L3322 1643 L3337 1642 L3335 1637 L3351 1633 L3348 1640 L3353 1643 L3354 1634 L3358 1632 L3357 1640 L3363 1631 L3363 1636 L3374 1639 L3369 1644 L3381 1640 L3381 1636 L3389 1637 L3391 1643 L3400 1639 L3405 1646 L3414 1644 L3415 1649 L3422 1649 L3421 1653 L3440 1650 L3459 1662 L3459 1656 L3488 1663 L3494 1657 L3510 1665 L3535 1662 L3549 1672 L3554 1669 L3557 1675 L3568 1676 L3575 1669 L3580 1672 L3577 1675 L3585 1677 L3585 1673 L3592 1673 L3590 1679 L3599 1677 L3592 1682 L3602 1679 L3606 1681 L3603 1686 L3612 1691 C3616 1691.5 3621.5 1689.5 3627 1690 L3645 1695 L3645 1700 L3658 1697 L3661 1706 L3671 1700 L3677 1715 L3680 1702 L3681 1709 L3689 1707 L3686 1711 L3695 1711 L3691 1715 L3697 1717 L3699 1712 L3706 1726 L3699 1719 L3699 1731 L3692 1723 L3693 1728 L3688 1731 L3678 1726 L3679 1730 L3673 1732 L3672 1727 L3663 1726 L3667 1732 L3662 1730 L3661 1735 L3651 1736 L3651 1741 L3643 1741 L3640 1733 L3634 1732 L3631 1736 L3641 1740 L3644 1747 L3629 1737 L3631 1748 L3622 1750 L3614 1744 L3604 1748 L3607 1741 L3602 1738 L3593 1751 L3585 1751 L3587 1744 L3582 1749 L3579 1740 L3575 1747 L3572 1745 L3574 1752 L3569 1749 L3570 1753 L3572 1736 L3564 1749 L3560 1748 L3560 1738 L3553 1741 L3556 1748 L3542 1748 L3528 1741 L3530 1745 L3523 1749 L3522 1735 L3517 1744 L3492 1740 L3493 1744 L3481 1737 L3479 1743 L3483 1748 L3469 1741 L3473 1749 L3464 1746 L3466 1733 L3453 1741 L3451 1732 L3453 1752 L3446 1741 L3444 1745 L3437 1744 L3437 1751 L3428 1745 L3428 1749 L3410 1754 L3409 1750 L3425 1742 L3415 1741 L3421 1737 L3410 1735 L3410 1746 L3397 1744 L3394 1737 L3378 1733 L3379 1729 L3383 1733 L3384 1722 L3372 1722 L3367 1730 L3363 1727 L3365 1722 L3361 1722 L3362 1713 L3358 1722 L3355 1717 L3350 1722 L3348 1718 L3352 1715 L3345 1712 L3337 1716 L3337 1721 L3332 1716 L3327 1719 L3324 1712 L3324 1724 L3311 1728 L3304 1724 L3305 1730 L3298 1726 L3296 1732 L3289 1733 L3285 1725 L3285 1738 L3280 1740 L3279 1726 L3277 1740 L3245 1737 L3247 1746 L3240 1739 L3237 1746 L3230 1748 L3220 1744 L3223 1739 L3230 1739 L3228 1733 L3226 1737 L3215 1738 L3197 1736 L3194 1732 L3183 1737 L3172 1732 L3170 1740 L3160 1737 L3149 1743 L3155 1753 L3148 1753 L3152 1759 L3133 1762 L3115 1751 L3105 1755 L3097 1745 L3092 1746 L3091 1739 L3069 1738 L3065 1742 L3050 1735 L3048 1750 L3038 1745 L3028 1749 L3026 1745 L3021 1755 L3016 1743 L3016 1748 L2998 1749 L2998 1755 L2987 1755 L2987 1751 L2972 1753 L2969 1748 L2965 1750 L2965 1739 L2948 1742 L2943 1732 L2936 1734 L2940 1730 L2938 1724 L2934 1730 L2927 1727 L2927 1722 L2921 1728 L2919 1723 L2907 1721 L2905 1707 L2899 1711 L2896 1706 L2892 1712 L2879 1701 L2863 1702 L2863 1707 L2858 1701 L2854 1709 L2844 1700 L2835 1702 L2833 1698 L2826 1707 L2826 1703 L2820 1706 L2813 1699 L2807 1701 L2808 1709 L2803 1710 L2806 1719 L2798 1710 L2798 1716 L2791 1718 L2791 1713 L2779 1712 L2780 1705 L2766 1712 L2761 1712 L2763 1706 L2747 1708 L2740 1699 L2738 1684 L2732 1679 L2708 1682 L2708 1687 L2702 1687 L2707 1683 L2690 1679 C2683.5 1679 2672 1684 2667 1684 C2662 1684 2662 1680.5 2659 1680 L2649 1682 L2652 1686 L2638 1681 L2642 1689 L2638 1686 L2633 1692 L2626 1690 L2626 1682 L2615 1685 L2601 1673 L2595 1676 L2594 1670 L2583 1677 L2583 1683 L2544 1679 L2539 1682 L2533 1677 L2521 1682 L2522 1677 L2517 1679 L2510 1672 L2507 1675 L2502 1667 L2493 1667 L2493 1662 L2485 1668 L2466 1659 C2459 1657.5 2450.5 1662 2442 1660 C2433.5 1658 2422 1650 2416 1648 L2407 1648 L2398 1657 L2383 1654 L2384 1661 L2370 1661 L2370 1657 L2354 1660 L2355 1664 L2340 1661 L2335 1664 L2335 1681 L2325 1677 L2320 1682 L2318 1676 L2309 1676 L2296 1686 L2289 1682 L2282 1685 L2283 1682 L2277 1682 L2279 1677 L2273 1682 L2266 1674 L2267 1681 L2272 1683 L2264 1687 L2259 1684 L2266 1684 L2264 1679 L2249 1682 L2252 1686 L2246 1691 L2246 1682 L2236 1679 L2241 1671 L2231 1674 L2219 1686 L2217 1680 L2213 1682 L2209 1676 L2200 1680 L2194 1672 L2198 1682 L2192 1679 L2193 1684 L2185 1688 L2179 1684 L2181 1690 L2173 1686 L2162 1701 L2154 1700 L2150 1693 L2153 1690 L2146 1682 L2138 1683 L2138 1693 L2129 1692 L2122 1697 L2123 1688 L2114 1683 L2116 1680 L2109 1680 L2114 1685 L2111 1687 L2099 1682 L2098 1694 L2083 1680 L2084 1684 L2076 1686 L2082 1692 L2076 1693 L2073 1686 L2065 1686 L2074 1682 L2058 1685 L2064 1680 L2049 1676 L2044 1669 L2034 1672 L2033 1668 L2029 1672 L2018 1663 L2017 1670 L2009 1668 L2011 1675 L2006 1675 L2007 1680 L2001 1675 L1994 1680 L1996 1675 L1985 1666 L1987 1660 L1982 1653 L1983 1660 L1977 1665 L1972 1660 L1970 1665 L1963 1659 L1957 1664 L1948 1662 L1943 1651 L1938 1653 L1944 1659 L1936 1659 L1936 1652 L1932 1652 L1931 1659 L1926 1660 L1930 1650 L1924 1650 L1919 1667 L1911 1668 L1915 1662 L1910 1657 L1905 1657 L1910 1662 L1903 1662 L1896 1655 L1894 1662 L1893 1653 L1880 1660 L1863 1656 L1861 1644 L1855 1646 L1853 1642 L1858 1636 L1855 1633 L1851 1643 L1842 1643 L1846 1649 L1852 1645 L1851 1650 L1859 1650 L1861 1655 L1846 1668 L1849 1652 L1840 1643 L1839 1650 L1820 1652 L1817 1645 L1821 1642 L1811 1641 L1810 1632 L1793 1640 L1803 1655 L1800 1637 L1809 1640 L1808 1647 L1814 1644 L1816 1653 L1809 1652 L1808 1662 L1802 1656 L1797 1661 L1791 1653 L1782 1653 L1784 1648 L1778 1642 L1770 1653 L1761 1653 L1755 1660 L1746 1652 L1752 1648 L1766 1652 L1775 1635 L1768 1632 L1750 1641 L1758 1645 L1750 1645 L1746 1635 L1736 1630 L1740 1628 L1734 1625 L1736 1618 L1731 1623 L1735 1613 L1727 1615 L1721 1609 L1722 1602 L1715 1612 L1726 1614 L1724 1623 L1719 1621 L1720 1613 L1715 1616 L1720 1627 L1715 1630 L1713 1624 L1706 1623 L1700 1628 L1699 1619 L1712 1622 L1705 1615 L1712 1608 L1715 1590 L1705 1599 L1705 1593 L1702 1596 L1697 1588 L1698 1597 L1702 1596 L1704 1604 L1710 1606 L1707 1613 L1702 1612 L1702 1618 L1694 1610 L1685 1617 L1683 1611 L1671 1609 L1672 1613 L1657 1612 L1660 1615 L1654 1621 L1656 1613 L1651 1609 L1644 1615 L1644 1610 L1638 1615 L1628 1614 L1636 1605 L1636 1595 L1629 1610 L1623 1611 L1619 1602 L1613 1609 L1613 1598 L1618 1596 L1601 1582 L1601 1594 L1591 1589 L1595 1597 L1603 1596 L1601 1601 L1608 1597 L1604 1593 L1610 1591 L1606 1603 L1615 1613 L1607 1615 L1611 1611 L1598 1607 L1592 1596 L1587 1600 L1579 1597 L1580 1590 L1569 1587 L1568 1596 L1563 1588 L1557 1593 L1557 1589 L1570 1584 L1563 1578 L1554 1583 L1547 1575 L1541 1582 L1544 1588 L1534 1585 L1536 1578 L1538 1583 L1544 1578 L1532 1577 L1531 1574 L1540 1574 L1540 1570 L1535 1572 L1536 1563 L1531 1565 L1534 1572 L1527 1571 L1528 1579 L1524 1579 L1526 1563 L1520 1563 L1518 1556 L1512 1563 L1524 1580 L1521 1584 L1526 1600 L1521 1600 L1523 1590 L1518 1572 L1511 1568 L1512 1555 L1519 1553 L1519 1549 L1506 1551 L1506 1557 L1494 1552 L1499 1557 L1494 1560 L1478 1547 L1469 1554 L1476 1554 L1477 1550 L1481 1554 L1472 1558 L1462 1550 L1450 1551 L1448 1548 L1455 1546 L1451 1540 L1440 1544 L1435 1540 L1439 1537 L1425 1537 L1423 1532 L1421 1541 L1415 1541 L1423 1544 L1412 1546 L1410 1543 L1418 1537 L1420 1529 L1409 1524 L1411 1529 L1406 1530 L1399 1524 L1399 1518 L1393 1525 L1395 1530 L1388 1530 L1385 1525 L1381 1534 L1371 1535 L1367 1532 L1371 1527 L1369 1521 L1374 1520 L1370 1517 L1359 1522 L1356 1529 L1328 1516 L1326 1507 L1333 1497 L1326 1500 L1328 1494 L1323 1485 L1325 1507 L1319 1502 L1318 1508 L1322 1514 L1326 1512 L1323 1522 L1315 1510 L1312 1519 L1302 1522 L1298 1513 L1285 1514 L1301 1510 L1288 1501 L1285 1506 L1271 1503 L1272 1510 L1279 1509 L1274 1515 L1270 1508 L1265 1509 L1267 1504 L1259 1502 L1269 1501 L1267 1485 L1259 1486 L1266 1492 L1263 1497 L1247 1494 L1254 1490 L1246 1489 L1246 1498 L1252 1497 L1244 1503 L1239 1495 L1242 1489 L1235 1496 L1228 1494 L1235 1481 L1227 1484 L1233 1476 L1225 1472 L1218 1477 L1220 1493 L1214 1496 L1217 1484 L1212 1484 L1211 1477 L1201 1473 L1198 1477 L1193 1465 L1193 1479 L1188 1461 L1175 1466 L1173 1471 L1169 1467 L1171 1462 L1177 1462 L1173 1457 L1170 1462 L1164 1461 L1166 1448 L1161 1452 L1160 1446 L1145 1441 L1146 1437 L1132 1435 L1133 1430 L1129 1433 L1126 1425 L1121 1427 L1115 1422 L1121 1439 L1113 1443 L1117 1438 L1103 1438 L1107 1433 L1099 1425 L1098 1429 L1089 1427 L1090 1412 L1084 1412 L1087 1416 L1073 1411 L1075 1418 L1071 1414 L1061 1418 L1067 1411 L1058 1408 L1053 1415 L1059 1413 L1059 1421 L1054 1418 L1056 1423 L1046 1428 L1052 1415 L1048 1417 L1040 1406 L1039 1415 L1032 1410 L1020 1417 L1018 1401 L1028 1401 L1027 1395 L1021 1399 L1017 1395 L1011 1411 L1006 1411 L1002 1404 L992 1406 L1000 1400 L1010 1403 L1015 1397 L1010 1391 L1013 1388 L1001 1391 L1005 1380 L1000 1373 L998 1377 L994 1375 L996 1381 L1002 1382 L999 1387 L990 1390 L983 1387 L984 1383 L972 1385 L980 1379 L984 1381 L978 1352 L972 1346 L968 1354 L962 1352 L963 1345 L957 1349 L960 1344 L954 1344 L952 1337 L940 1332 L947 1330 L947 1323 L955 1323 L952 1320 L961 1322 L972 1316 L978 1321 L977 1314 L969 1314 L972 1310 L967 1309 L971 1304 L980 1305 L979 1301 L972 1301 L979 1298 L975 1293 L979 1292 L975 1287 L978 1283 L958 1267 L938 1270 L932 1264 L919 1266 L920 1257 L924 1256 L922 1250 L930 1243 L925 1237 L933 1237 L923 1223 L913 1222 L911 1228 L903 1228 L897 1222 L891 1224 L890 1217 L887 1224 L881 1220 L886 1217 L886 1210 L891 1215 L895 1214 L894 1208 L898 1212 L898 1207 L902 1207 L902 1195 L896 1187 L905 1194 L903 1186 L912 1188 L919 1180 L909 1171 C903 1168.5 890.5 1165.5 884 1165 C877.5 1164.5 874.5 1168.5 870 1168 L858 1162 L852 1164 L833 1144 L832 1148 L825 1147 L825 1137 L819 1138 L820 1131 L814 1134 L814 1128 L807 1128 L806 1122 L800 1126 L790 1118 C782.5 1116 764 1114 756 1114 L742 1118 L741 1112 L733 1116 L716 1108 L693 1107 L695 1110 L687 1113 L691 1108 L675 1105 L670 1110 L669 1101 L663 1108 L654 1108 L653 1102 L647 1104 L647 1098 L644 1104 L631 1097 L617 1103 L607 1096 L598 1098 L596 1093 L591 1097 L584 1092 L574 1098 L568 1090 L564 1095 L535 1087 L521 1089 L515 1079 L506 1080 L492 1072 L484 1074 L481 1069 L456 1069 L447 1066 L444 1060 L441 1065 L414 1061 L409 1067 L379 1069 L379 1060 L354 1053 L338 1054 L334 1050 L312 1059 L296 1054 L290 1059 L262 1056 L255 1062 L242 1060 L240 1064 L233 1063 L236 1069 L230 1064 L229 1072 L217 1076 L228 1078 L220 1088 L227 1086 L228 1081 L231 1087 L233 1083 L240 1086 L240 1080 L250 1078 L258 1086 L266 1085 L275 1091 L288 1086 L291 1093 L298 1089 L303 1098 L297 1103 L303 1107 L315 1105 L315 1113 L322 1104 L335 1113 L350 1110 L349 1120 L345 1112 L341 1122 L330 1121 L333 1126 L337 1124 L336 1134 L331 1129 L335 1139 L342 1139 L346 1132 L350 1134 L348 1141 L341 1141 L346 1145 L350 1142 L347 1153 L333 1150 L341 1148 L339 1143 L320 1144 L319 1151 L316 1148 L317 1158 L313 1158 L313 1150 L309 1153 L311 1158 L307 1157 L307 1145 L305 1149 L298 1148 L297 1153 L291 1150 L290 1154 L282 1155 L278 1153 L278 1142 L276 1147 L272 1143 L271 1147 L263 1147 L267 1144 L263 1142 L262 1148 L252 1146 L254 1152 L243 1153 L245 1161 L241 1163 L235 1160 L237 1153 L230 1158 L228 1145 L228 1159 L225 1149 L220 1149 L222 1145 L210 1151 L209 1128 L200 1138 L193 1136 L190 1128 L186 1142 L192 1142 L188 1148 L172 1140 L178 1139 L172 1130 L179 1127 L173 1126 L168 1135 L165 1128 L159 1128 L160 1136 L157 1134 L154 1139 L154 1146 L159 1146 L156 1150 L149 1145 L149 1134 L158 1132 L155 1126 L159 1123 L153 1123 L149 1112 L134 1122 L136 1115 L128 1108 L119 1111 L129 1112 L129 1122 L137 1129 L129 1129 L129 1116 L123 1121 L114 1116 L118 1124 L112 1124 L112 1120 L101 1124 L98 1112 L88 1117 L86 1112 L93 1111 L89 1103 L81 1109 L85 1118 L81 1118 L81 1112 L78 1118 L77 1112 L71 1117 L70 1108 L74 1111 L79 1105 L75 1106 L73 1099 L77 1101 L79 1096 L60 1098 L61 1093 L53 1090 L52 1079 L47 1077 L47 1087 L51 1085 L52 1092 L49 1098 L55 1099 L49 1103 L42 1098 L40 1088 L44 1083 L34 1076 L40 1066 L34 1067 L37 1072 L26 1066 L21 1078 L10 1070 L6 1081 L0 1073 L0 200 L24 202 L38 217 L53 218 L60 228 L80 230 L87 208 L102 201 L96 194 L117 192 L138 202 L137 194 L146 198 L149 187 L166 188 L170 179 L180 180 L181 173 L188 175 L189 181 L184 184 L201 189 C212 204 237 218.5 230 238 L237 249 L249 248 L272 288 L285 288 L293 293 L287 295 L291 303 L300 291 L306 292 L311 300 L325 295 L352 322 L359 322 L359 317 L367 320 L369 330 L360 334 L356 365 L367 356 L379 356 L382 349 L392 349 L390 344 L406 347 L414 355 L431 344 C436.5 342 444 343 448 342 L454 337 L454 327 L449 322 L455 318 L444 307 L449 298 L477 307 L493 307 L498 313 L495 317 L501 318 L506 328 L496 339 L509 339 L513 337 L510 332 L518 335 L517 331 L525 335 L535 331 L536 326 L555 327 L558 322 L535 312 L533 300 L517 277 L519 273 L540 281 L557 299 L567 287 L565 280 L570 280 L576 299 L564 314 L568 315 L568 323 L563 326 L576 335 L591 338 L608 366 L638 366 L646 361 L646 355 L663 345 L659 335 L663 312 L654 297 L662 295 L660 287 L671 291 L675 282 L680 284 L683 307 L691 307 L689 313 L705 323 L703 330 L698 328 L698 337 L703 341 L715 328 L731 330 L735 320 L743 323 L743 319 L752 318 L755 326 L767 326 C772 328.5 779.5 338.5 785 341 L799 341 L817 359 L834 359 L841 343 L848 343 L847 337 L842 338 L841 329 L844 331 L848 320 L852 321 L857 313 L904 326 L909 323 L906 317 L910 307 L916 305 L900 282 L885 272 L887 266 L878 268 L868 257 L867 249 L864 254 L861 247 L868 241 L854 240 L841 230 L841 219 L853 221 L871 238 L872 229 L883 231 L888 257 L900 260 L905 268 L920 268 L927 275 L926 271 L955 268 L956 258 L940 258 L934 249 C894.5 227.5 911.5 245.5 896 203 L881 186 L891 177 L886 171 L886 159 L877 150 L871 149 L868 154 L851 143 L854 135 L867 131 L868 128 L861 128 L863 124 L847 124 L849 131 L838 124 L832 128 L834 146 L823 144 L819 149 L828 160 L835 160 L841 169 L847 167 L854 174 L849 202 L840 201 L837 196 L836 188 L844 184 L843 180 L835 181 L828 198 L822 201 L812 203 L814 191 L808 189 L807 206 L819 218 L816 223 L826 228 L820 236 L808 219 C804 215.5 801.5 219.5 797 216 C792.5 212.5 785 201.5 780 198 L768 195 L766 189 L763 191 L733 169 C672.5 62.5 700 145 659 79 C637.5 78.5 650.5 61 617 59 L609 48 L603 50 L604 56 L597 61 L579 55 C573 55 572.5 61.5 562 60 L516 46 L513 56 L498 62 L504 67 L511 63 L513 69 L508 67 L506 75 L516 85 L524 86 L525 95 L506 99 C499.5 99 491.5 95.5 487 94 C482.5 92.5 481 91.5 479 89 L476 80 L471 80 L471 88 L464 93 L481 110 L460 106 L466 104 L463 99 L456 109 L437 114 C432 114.5 432 115 427 111 C422 107 411.5 96 408 91 L407 81 L398 79 L397 70 L389 69 L386 62 L373 60 L349 18 L344 23 L350 24 L350 30 L345 31 L335 24 L322 28 L317 21 L274 20 L264 13 L258 16 L255 26 L248 26 L255 30 L255 35 L264 36 L262 44 L277 51 L277 57 L282 59 L277 69 L266 70 L266 76 L283 93 L287 106 L297 110 L299 121 L312 124 L308 126 L309 134 L302 136 C286 147 250 91 240 111 L227 105 L224 97 L217 106 L211 105 L212 100 L198 99 L179 99 L179 107 L161 103 L144 106 L135 97 L135 74 L124 60 L99 59 L79 32 L67 25 L55 28 L60 38 L54 43 L20 40 L0 24 Z M1214 763 L1192 771 L1192 776 L1197 774 L1192 780 L1194 787 L1189 785 L1183 794 L1168 798 L1152 792 L1142 804 L1121 805 L1107 814 L1106 823 L1094 827 L1108 838 L1127 832 L1143 841 L1160 839 L1166 848 C1170.5 851 1179.5 854.5 1186 856 L1206 858 L1210 852 L1225 880 L1247 881 L1253 887 L1269 885 L1326 911 L1330 906 L1323 880 L1318 871 L1306 871 L1300 852 L1285 843 L1277 817 L1279 811 L1266 799 L1270 792 L1267 783 C1262.5 778.5 1251 769.5 1242 766 Z M971 778 L956 788 C951 789.5 945 786.5 940 787 C935 787.5 929.5 788 925 792 L912 810 L896 804 L891 786 L876 782 L862 802 L836 802 L829 795 L820 794 L817 803 L825 829 L832 828 L829 814 L835 819 L847 817 L851 822 L842 836 L836 837 L836 847 L861 843 L869 852 L880 851 L885 859 L898 861 L910 871 L938 869 C944 868 940.5 864.5 945 864 C949.5 863.5 959.5 864 965 865 L978 871 L989 865 L989 858 L1007 856 L1013 861 L1036 864 L1041 855 L1047 858 L1072 853 L1072 838 L1078 838 L1076 831 L1041 820 L1036 814 L1021 812 L1011 794 L995 792 L987 782 Z M2968 261 L2969 269 L2975 263 L2978 277 L2974 286 L2969 285 L2969 280 L2975 277 L2975 269 L2971 269 L2965 274 L2968 281 L2962 284 L2971 290 L2978 284 L2985 286 L2976 288 L2974 295 L2964 293 L2968 300 L2983 294 L2979 317 L2984 320 L2979 328 L2980 321 L2964 322 L2966 326 L2975 325 L2972 335 L2943 338 L2942 347 L2950 337 L2968 349 L2967 354 L2952 342 L2948 349 L2953 361 L2957 351 L2968 358 L2962 366 L2954 362 L2949 368 L2959 372 L2959 366 L2964 371 L2964 364 L2973 364 L2972 368 L2977 370 L2970 360 L2973 357 L2969 347 L2973 350 L2979 346 L2974 358 L2980 349 L2987 348 L2987 342 L2980 342 L2984 335 L2981 328 L2987 331 L2986 341 L2989 332 L2995 332 L2999 340 L3011 335 L3009 342 L3013 345 L3009 347 L3016 348 L3017 339 L3028 337 L3033 342 L3029 345 L3024 338 L3021 343 L3026 343 L3025 348 L3033 352 L3032 344 L3036 342 L3038 351 L3042 349 L3047 355 L3048 350 L3040 345 L3040 341 L3046 340 L3040 338 L3052 337 L3057 342 L3058 337 L3065 338 L3066 342 L3081 345 L3082 337 L3089 337 L3088 333 L3076 332 L3081 323 L3073 322 L3071 313 L3076 317 L3085 301 L3079 299 L3074 303 L3076 297 L3070 295 L3072 289 L3068 289 L3067 281 L3064 287 L3055 288 L3032 264 L3027 267 L3023 260 L3023 266 L3017 269 L3009 267 L3012 262 L3003 262 L3006 272 L2998 267 L2995 282 L3003 286 L3002 294 L2998 295 L3000 289 L2989 285 L2993 274 L2987 271 L2988 284 L2983 277 L2979 279 L2981 269 L2995 268 L2987 263 L2985 252 Z M2912 214 L2908 218 L2909 228 L2899 225 L2890 232 L2876 251 L2871 249 L2864 255 L2860 268 L2878 271 C2886 275 2901 287.5 2908 291 C2915 294.5 2916 292.5 2919 292 L2927 287 L2928 279 L2935 279 L2930 272 L2936 252 L2915 238 L2921 228 L2914 224 Z M1015 941 L997 950 L996 956 L990 954 L985 959 L990 965 L999 961 L994 969 L1000 976 L999 982 L992 985 L991 975 L977 960 L970 961 L970 969 L975 970 L978 982 C980.5 986.5 985 994 991 998 L1013 1005 L1025 1000 L1021 998 L1023 990 L1032 986 L1053 1007 L1051 1002 L1058 995 L1050 990 L1046 976 L1039 974 L1039 966 C1037.5 963 1035 959 1031 955 Z M2747 91 L2742 95 L2744 100 L2751 98 L2751 102 L2745 101 L2748 110 L2758 115 L2751 123 L2755 127 L2765 125 L2764 128 L2774 129 L2785 124 L2800 129 L2780 139 L2784 143 L2769 143 L2783 145 L2783 149 L2790 150 L2791 157 L2785 153 L2781 160 L2779 154 L2771 159 L2768 149 L2769 160 L2759 162 L2759 166 L2786 176 L2796 167 L2792 157 L2797 157 L2802 148 L2811 149 L2803 139 L2809 134 L2809 127 L2818 134 L2824 125 L2820 135 L2827 131 L2829 137 L2823 137 L2821 147 L2830 148 L2830 128 L2835 129 L2838 124 L2833 121 L2833 125 L2828 119 L2821 122 L2816 110 L2824 114 L2822 108 L2812 108 L2815 102 L2803 103 L2811 108 L2795 104 L2794 119 L2806 119 L2808 114 L2810 123 L2794 120 L2793 124 L2789 109 L2785 108 L2787 119 L2783 118 L2786 114 L2771 115 L2772 106 L2780 103 L2778 99 L2771 97 L2769 108 L2761 105 L2764 99 L2759 98 L2752 105 L2753 97 L2746 97 L2750 93 Z M1536 1255 L1528 1272 L1532 1285 L1552 1291 C1558 1294.5 1562 1302 1567 1305 L1583 1308 L1586 1316 L1590 1314 L1592 1290 L1587 1289 L1589 1284 L1585 1283 L1583 1271 L1564 1257 L1541 1260 Z" fill="#5185EF" fill-rule="evenodd"/>
  <path d="M2671 1435 L2679 1438 L2678 1454 L2691 1454 L2696 1448 L2702 1459 L2714 1464 L2706 1471 L2705 1479 L2732 1491 C2741 1492.5 2748.5 1485 2758 1487 L2789 1503 L2795 1496 L2811 1497 L2813 1489 L2819 1491 L2820 1484 L2830 1485 L2834 1480 L2844 1482 L2840 1484 L2842 1499 L2846 1498 L2854 1510 L2860 1507 L2863 1495 L2864 1499 L2876 1500 L2889 1497 L2891 1491 L2907 1489 C2912 1489 2917.5 1489.5 2921 1491 L2929 1499 L2940 1499 L2941 1491 L2951 1487 L2959 1503 L2966 1500 L2978 1509 L2972 1507 L2969 1512 L2973 1512 L2973 1517 L2969 1513 L2964 1522 L2968 1521 L2972 1532 L2976 1527 L2982 1528 L2978 1532 L2984 1531 L2984 1541 L2974 1539 L2979 1544 L2978 1552 L2985 1553 L2978 1558 L2987 1558 L2987 1562 L2981 1563 L2995 1564 L2993 1572 L3000 1572 L2998 1567 L3007 1571 L3009 1579 L3005 1584 L3015 1576 L3018 1589 L3022 1587 L3024 1591 L2999 1593 L2994 1588 L2994 1593 L2979 1592 L2956 1574 L2949 1575 L2948 1566 L2941 1561 L2894 1561 L2903 1554 L2887 1555 L2888 1559 L2893 1556 L2891 1562 L2877 1559 L2878 1563 L2873 1563 L2868 1559 L2865 1562 L2852 1551 L2826 1554 L2809 1548 L2814 1552 L2805 1553 L2800 1544 L2781 1544 L2781 1535 L2791 1538 L2788 1531 L2775 1531 L2768 1544 L2762 1539 L2769 1533 L2761 1528 L2756 1530 L2754 1525 L2744 1526 L2745 1518 L2723 1522 C2715.5 1522.5 2705.5 1521 2701 1520 L2696 1515 L2669 1515 L2667 1510 L2657 1507 L2660 1502 L2652 1482 L2660 1481 L2666 1474 L2661 1463 L2656 1464 L2661 1450 L2644 1456 L2638 1449 L2643 1450 L2660 1438 L2672 1443 Z M2817 1500 L2812 1504 L2825 1505 Z M2810 1504 L2808 1509 L2812 1513 Z M2987 1578 L2980 1579 L2980 1585 Z" fill="#5185EF" fill-rule="evenodd"/>
  <path d="M3883 1510 L3889 1516 L3899 1512 L3899 1519 L3908 1520 L3907 1524 L3915 1526 L3913 1530 L3918 1532 L3978 1532 L3979 1537 L3992 1537 L3988 1541 L4004 1537 L4006 1540 L4014 1534 L4024 1535 L4023 1541 L4035 1535 L4041 1541 L4067 1541 L4069 1536 L4071 1542 L4078 1544 L4077 1550 L4082 1551 L4081 1559 L4073 1565 L4066 1558 L4066 1568 L4045 1555 L4027 1554 L4024 1561 L4005 1559 L4004 1563 L3998 1555 L3980 1557 L3973 1552 L3969 1556 L3955 1554 L3959 1562 L3951 1565 L3923 1556 L3926 1562 L3921 1565 L3920 1560 L3897 1553 L3898 1547 L3869 1544 L3867 1539 L3873 1532 L3870 1526 L3881 1525 Z" fill="#5185EF"/>
  <path d="M3940 1613 L3956 1613 L3962 1618 L3966 1613 L3981 1613 L3987 1622 L3996 1616 L4003 1624 L4016 1623 L4017 1629 L4022 1630 L4012 1634 L3980 1625 L3978 1630 L3966 1632 L3948 1626 L3944 1644 L3953 1644 L3939 1650 L3938 1645 L3937 1650 L3915 1645 L3918 1649 L3912 1652 L3909 1646 L3914 1643 L3909 1641 L3892 1643 L3889 1648 L3878 1648 L3872 1643 L3876 1648 L3873 1654 L3879 1652 L3877 1657 L3866 1652 L3848 1654 L3844 1649 L3848 1643 L3842 1643 L3844 1652 L3837 1650 L3841 1644 L3830 1645 L3831 1639 L3840 1641 L3837 1636 L3845 1635 L3844 1630 L3852 1637 L3854 1631 L3860 1635 C3864.5 1635.5 3875.5 1634 3880 1633 L3886 1630 L3885 1623 L3894 1619 L3907 1621 L3912 1617 L3937 1617 Z M3849 1638 L3844 1641 L3855 1643 Z M3858 1639 L3857 1645 L3849 1646 L3847 1651 L3865 1646 Z" fill="#5185EF" fill-rule="evenodd"/>
  <path d="M3735 290 L3742 295 L3751 291 L3753 307 L3770 298 L3788 308 L3788 320 L3805 321 L3802 351 L3793 356 L3790 353 L3773 366 L3764 366 L3752 337 L3734 320 L3733 305 L3728 302 Z" fill="#5185EF"/>
  <path d="M3904 906 L3920 908 L3926 923 L3919 925 L3924 926 L3923 930 L3936 930 L3938 935 L3953 940 L3951 950 L3941 950 L3942 946 L3934 944 L3941 950 L3937 954 L3943 960 L3941 964 L3924 957 L3922 952 L3910 954 L3907 949 L3890 944 L3870 950 L3866 940 L3855 935 L3855 927 L3861 923 L3879 923 L3887 932 L3896 930 L3887 920 L3902 913 Z M3905 920 L3897 926 L3898 931 L3913 926 L3913 920 Z" fill="#5185EF" fill-rule="evenodd"/>
  <path d="M2276 0 L2330 0 L2334 12 L2340 7 L2353 11 L2352 15 L2348 12 L2350 19 L2355 12 L2357 18 L2375 17 L2374 10 L2370 15 L2367 5 L2379 5 L2385 0 L2380 10 L2390 16 L2384 19 L2391 28 L2385 30 L2376 18 L2369 17 L2363 22 L2372 20 L2375 30 L2368 27 L2364 38 L2357 33 L2356 40 L2343 40 L2333 27 L2318 20 L2311 28 L2304 15 L2292 13 L2293 8 Z" fill="#5185EF"/>
  <path d="M4089 1888 L4096 1890 L4096 1916 L4084 1920 L4074 1920 L4070 1915 L4067 1919 L4056 1910 L4047 1915 L4004 1910 L4004 1914 L3999 1914 L4001 1920 L3986 1917 L3986 1917 L4004 1914 L3999 1914 L4001 1920 L3986 1917 L3991 1916 L3988 1911 L3993 1910 L4000 1908 L3998 1904 L4024 1902 L4026 1905 L4032 1897 L4035 1904 L4039 1897 L4040 1900 L4051 1899 L4049 1904 L4052 1899 L4061 1898 L4064 1893 L4068 1895 L4069 1890 L4080 1889 L4081 1893 L4086 1892 Z" fill="#5185EF"/>
  <path d="M3389 391 L3396 404 L3410 405 L3410 412 L3411 408 L3415 410 L3414 418 L3407 421 L3409 436 L3395 436 L3375 425 L3369 427 L3368 419 L3358 414 L3363 401 L3383 408 L3379 401 L3388 402 Z" fill="#5185EF"/>
  <path d="M2170 402 L2171 406 L2182 406 L2183 414 L2193 413 L2195 408 L2202 410 L2200 413 L2207 420 L2214 418 L2215 429 L2214 418 L2215 429 L2210 427 L2213 432 L2203 433 L2202 429 L2195 430 L2194 433 L2198 434 L2192 436 L2192 440 L2187 436 L2180 437 L2181 431 L2178 434 L2175 431 L2175 434 L2169 437 L2165 432 L2166 437 L2161 436 L2158 441 L2157 436 L2150 438 L2155 433 L2156 426 L2161 425 L2157 430 L2167 429 L2164 422 L2166 412 L2174 412 L2171 409 L2167 410 Z" fill="#5185EF"/>
  <path d="M2939 1386 L2942 1405 L2933 1406 L2929 1415 L2916 1413 L2922 1423 L2908 1425 L2922 1423 L2908 1425 L2922 1423 L2908 1425 L2916 1415 L2922 1423 L2908 1425 L2901 1384 Z" fill="#5185EF"/>
  <path d="M2183 562 L2212 567 L2211 571 L2227 576 L2250 576 L2257 585 L2254 592 L2243 592 L2242 601 L2236 600 C2233.5 598.5 2231.5 593 2227 591 C2222.5 589 2213.5 589.5 2209 587 L2199 577 L2202 574 L2192 572 L2191 567 L2190 572 L2183 574 Z" fill="#5185EF"/>
  <path d="M2636 0 L2685 0 L2682 5 L2687 9 L2674 15 C2670.5 18 2668 23.5 2667 27 L2668 35 L2656 41 L2652 39 L2657 33 L2654 24 C2652.5 21 2651.5 18 2649 16 L2638 12 Z" fill="#5185EF"/>
  <path d="M0 1808 L16 1812 C24.5 1812.5 42 1809.5 51 1811 C60 1812.5 62.5 1819.5 69 1821 L90 1821 L57 1822 C47.5 1823.5 40 1829 33 1830 L15 1828 L19 1823 L11 1823 L14 1826 L10 1829 L15 1831 L4 1833 L0 1831 L0 1821 L8 1827 L10 1823 L7 1819 L2 1821 Z" fill="#5185EF"/>
  <path d="M875 184 L876 188 L885 191 L881 192 L881 198 L886 202 L887 226 L883 227 L882 219 L878 218 L867 228 L867 225 L861 222 L861 212 L856 211 L857 207 L853 204 L861 201 L861 198 L869 198 L867 193 L863 194 L863 188 Z" fill="#5185EF"/>
  <path d="M2071 371 L2081 382 L2078 386 L2090 385 L2088 401 L2099 405 L2086 406 L2087 416 L2080 422 L2088 401 L2099 405 L2086 406 L2087 416 L2080 422 L2079 418 L2063 420 L2064 416 L2058 416 L2058 408 L2053 409 L2064 402 L2072 406 L2078 400 L2079 407 L2084 407 L2084 396 L2066 390 L2068 380 L2064 377 Z" fill="#5185EF"/>
  <path d="M1857 1216 L1869 1217 L1863 1223 L1868 1231 L1873 1230 L1874 1236 L1879 1236 L1871 1245 L1868 1259 L1857 1262 L1850 1230 Z" fill="#5185EF"/>
</svg>
