<?xml version="1.0" encoding="UTF-8"?>
<svg xmlns="http://www.w3.org/2000/svg" width="4096" height="3294" viewBox="0 0 4096 3294">
  <rect width="4096" height="1762" fill="#417AEE"/>
  <rect y="1741" width="4096" height="881" fill="#65891F"/>
  <rect y="2345" width="4096" height="765" fill="#384E14"/>
  <rect y="2721" width="4096" height="573" fill="#2F450B"/>
  <rect y="2211" width="4096" height="445" fill="#496518"/>
  <rect x="1195" width="1323" height="795" fill="#8CA8F1"/>
  <rect x="2821" width="1275" height="606" fill="#F3F3F3"/>
  <rect x="2155" y="1997" width="1941" height="395" fill="#506F1F"/>
  <rect x="2323" y="3024" width="981" height="270" fill="#384E11"/>
  <rect y="2470" width="594" height="289" fill="#2C410E"/>
  <rect x="1298" y="3130" width="686" height="164" fill="#3B520F"/>
  <rect x="2708" y="198" width="486" height="212" fill="#1F57E0"/>
  <rect x="3530" y="1956" width="566" height="124" fill="#434F8F"/>
  <rect x="3644" y="2974" width="452" height="149" fill="#374D13"/>
  <rect x="2638" y="1435" width="386" height="158" fill="#7399EE"/>
  <rect x="356" y="2594" width="420" height="139" fill="#1D1521"/>
  <rect x="771" y="2822" width="507" height="108" fill="#2F4313"/>
  <rect x="2367" y="2910" width="217" height="237" fill="#364C11"/>
  <rect x="2028" y="3045" width="179" height="249" fill="#395010"/>
  <rect x="3292" y="2990" width="284" height="140" fill="#374D12"/>
  <rect x="2217" y="3055" width="208" height="185" fill="#384F0F"/>
  <rect x="1723" y="2950" width="224" height="155" fill="#39500E"/>
  <rect x="3618" y="2793" width="281" height="103" fill="#2F4514"/>
  <rect x="657" y="2489" width="234" height="93" fill="#293D0C"/>
  <rect x="810" y="2510" width="273" height="75" fill="#2F440F"/>
  <rect x="2729" y="90" width="115" height="124" fill="#2156DE"/>
  <rect x="3960" y="1986" width="118" height="38" fill="#6E6FA8"/>
  <rect x="1449" y="1754" width="211" height="16" fill="#49625C"/>
  <rect x="2994" y="1929" width="136" height="20" fill="#5B5F54"/>
  <rect x="1290" y="1741" width="161" height="15" fill="#546D4D"/>
  <rect x="3068" y="251" width="36" height="56" fill="#2257DF"/>
  <rect x="2830" y="1905" width="100" height="15" fill="#565C52"/>
  <rect x="3448" y="1983" width="67" height="19" fill="#3B498E"/>
  <rect x="2721" y="1890" width="89" height="12" fill="#455757"/>
  <rect x="3730" y="2004" width="31" height="29" fill="#6C6EA1"/>
  <rect x="2558" y="1870" width="84" height="10" fill="#4D5852"/>
  <rect x="3500" y="1991" width="49" height="16" fill="#575779"/>
  <rect x="3907" y="2057" width="70" height="11" fill="#5E648A"/>
  <rect x="2483" y="1860" width="75" height="10" fill="#485655"/>
  <rect x="2645" y="1880" width="73" height="10" fill="#47565B"/>
  <rect x="3405" y="1976" width="45" height="16" fill="#676358"/>
  <rect x="1700" y="1772" width="73" height="9" fill="#4A6353"/>
  <rect x="3135" y="1949" width="64" height="10" fill="#4B5554"/>
  <rect x="3582" y="1999" width="30" height="18" fill="#6C615B"/>
  <rect x="3612" y="2000" width="27" height="19" fill="#66685B"/>
  <rect x="2935" y="1920" width="56" height="9" fill="#485458"/>
  <rect x="3340" y="1979" width="54" height="9" fill="#48535D"/>
  <rect x="3200" y="1959" width="53" height="8" fill="#495758"/>
  <rect x="1803" y="1781" width="58" height="7" fill="#465E60"/>
  <rect x="3552" y="1994" width="40" height="7" fill="#64679E"/>
  <rect x="3924" y="1997" width="34" height="7" fill="#6474A8"/>
  <rect x="3641" y="2012" width="18" height="12" fill="#65696B"/>
  <rect x="3952" y="1998" width="23" height="9" fill="#6B6EB1"/>
  <rect x="1868" y="1790" width="49" height="4" fill="#445D58"/>
  <rect x="3664" y="2020" width="21" height="9" fill="#515F7A"/>
  <rect x="3938" y="2031" width="11" height="7" fill="#5E678E"/>
</svg>
