<?xml version="1.0" encoding="UTF-8"?>
<svg xmlns="http://www.w3.org/2000/svg" width="4096" height="3294" viewBox="0 0 4096 3294">
  <rect width="4096" height="3294" fill="#5185EF"/>
  <rect y="1741" width="4096" height="915" fill="#63871D"/>
  <rect y="2345" width="4096" height="765" fill="#384E14"/>
  <rect y="2721" width="4096" height="573" fill="#2F450B"/>
  <rect y="1746" width="3180" height="672" fill="#709521"/>
  <circle cx="3458.5" cy="303" r="303" fill="#F3F3F3"/>
  <circle cx="478.5" cy="191" r="178" fill="#F5F5F5"/>
  <rect y="2470" width="594" height="289" fill="#2C410E"/>
  <rect x="2323" y="3159" width="981" height="135" fill="#384E11"/>
  <rect x="1298" y="3130" width="686" height="164" fill="#3B520F"/>
  <rect x="3528" y="1956" width="568" height="122" fill="#434F8F"/>
  <ellipse cx="3870" cy="3048.5" rx="226" ry="74.5" fill="#374D13"/>
  <rect x="2638" y="1435" width="386" height="158" fill="#7399EE"/>
  <circle cx="2716" cy="2973" r="90" fill="#374D13"/>
  <rect x="2028" y="3045" width="179" height="249" fill="#395010"/>
  <circle cx="3008" cy="2928" r="74" fill="#364C12"/>
  <circle cx="947.5" cy="824.5" r="46.5" fill="#F3F3F5"/>
  <ellipse cx="3434" cy="3060" rx="142" ry="70" fill="#374D12"/>
  <ellipse cx="566" cy="2663.5" rx="210" ry="69.5" fill="#1D1521"/>
  <rect x="771" y="2822" width="507" height="108" fill="#2F4313"/>
  <rect x="2902" y="249" width="285" height="157" fill="#1F57E0"/>
  <rect x="2217" y="3055" width="208" height="185" fill="#384F0F"/>
  <ellipse cx="2475.5" cy="3028.5" rx="108.5" ry="118.5" fill="#364C11"/>
  <rect x="1723" y="2950" width="224" height="155" fill="#39500E"/>
  <rect x="3227" y="2426" width="395" height="85" fill="#719221"/>
  <ellipse cx="2858.5" cy="3096" rx="100.5" ry="72" fill="#384E11"/>
  <ellipse cx="3758.5" cy="2844.5" rx="140.5" ry="51.5" fill="#2F4514"/>
  <ellipse cx="946.5" cy="2547.5" rx="136.5" ry="37.5" fill="#2F440F"/>
  <circle cx="4009" cy="1240" r="51" fill="#B5CAF3"/>
  <ellipse cx="774" cy="2535.5" rx="117" ry="46.5" fill="#293D0C"/>
  <rect x="3898" y="2774" width="198" height="115" fill="#2F4514"/>
  <ellipse cx="3146.5" cy="3100.5" rx="84.5" ry="45.5" fill="#374D10"/>
  <rect x="1593" y="2979" width="122" height="115" fill="#3B520F"/>
  <ellipse cx="1456.5" cy="1780.5" rx="666.5" ry="41.5" fill="#516933"/>
  <rect x="2438" y="3052" width="129" height="140" fill="#374D12"/>
  <rect x="1675" y="3238" width="167" height="56" fill="#364D0A"/>
  <rect x="3867" y="1510" width="215" height="58" fill="#7D9CEE"/>
  <rect x="468" y="2492" width="242" height="87" fill="#2E430E"/>
  <ellipse cx="3472.5" cy="3212" rx="53.5" ry="51" fill="#3A4E11"/>
  <rect x="1283" y="2928" width="122" height="122" fill="#374B0E"/>
</svg>
