<?xml version="1.0" encoding="UTF-8"?>
<svg xmlns="http://www.w3.org/2000/svg" width="1000" height="1000" viewBox="0 0 1000 1000">
  <rect x="269" y="79" width="731" height="273" fill="#0C1624"/>
  <rect y="591" width="269" height="409" fill="#0C1624"/>
  <rect x="663" y="672" width="337" height="243" fill="#0C1624"/>
  <rect x="269" width="731" height="79" fill="#0D1828"/>
  <rect x="26" y="276" width="227" height="249" fill="#00AEF7"/>
  <rect x="88" width="181" height="276" fill="#0C5674"/>
  <rect x="269" y="767" width="253" height="149" fill="#0C1624"/>
  <rect x="680" y="915" width="320" height="85" fill="#0D1828"/>
  <rect width="88" height="276" fill="#01B1ED"/>
  <rect x="551" y="402" width="260" height="82" fill="#0C1624"/>
  <rect x="269" y="916" width="253" height="84" fill="#0D1828"/>
  <rect x="916" y="386" width="59" height="286" fill="#0C1624"/>
  <rect x="602" y="484" width="225" height="73" fill="#0C1624"/>
  <rect x="421" y="672" width="130" height="95" fill="#0C1625"/>
  <rect x="551" y="352" width="275" height="34" fill="#00AEF7"/>
  <rect x="551" y="672" width="112" height="83" fill="#0C1625"/>
  <rect x="551" y="637" width="260" height="35" fill="#00AEF7"/>
  <rect x="551" y="920" width="112" height="80" fill="#0D1828"/>
  <rect x="335" y="672" width="86" height="95" fill="#0C1624"/>
  <rect x="551" y="823" width="82" height="97" fill="#0C1625"/>
  <rect x="551" y="755" width="112" height="68" fill="#0C1624"/>
  <rect y="562" width="251" height="29" fill="#01B1ED"/>
  <rect x="975" y="386" width="25" height="286" fill="#0D1828"/>
  <rect x="269" y="352" width="69" height="100" fill="#0C1624"/>
  <rect x="372" y="447" width="67" height="97" fill="#0C1624"/>
  <rect y="276" width="26" height="249" fill="#01B1ED"/>
  <rect x="269" y="672" width="66" height="95" fill="#0D1828"/>
  <rect x="340" y="572" width="84" height="65" fill="#0C5674"/>
  <rect x="867" y="430" width="33" height="161" fill="#00AEF7"/>
  <rect x="567" y="484" width="35" height="137" fill="#0C1624"/>
  <rect x="338" y="431" width="34" height="141" fill="#00AEF7"/>
  <rect x="413" y="352" width="138" height="34" fill="#00AEF7"/>
  <rect y="525" width="220" height="21" fill="#01B1ED"/>
  <rect x="551" y="386" width="260" height="16" fill="#0D1828"/>
  <rect x="602" y="557" width="120" height="34" fill="#039FCA"/>
  <rect x="738" y="557" width="63" height="64" fill="#0C1624"/>
  <rect x="442" y="637" width="109" height="35" fill="#00AEF7"/>
  <rect y="546" width="237" height="16" fill="#01B1ED"/>
  <rect x="269" y="637" width="106" height="35" fill="#0C1624"/>
  <rect x="602" y="591" width="120" height="30" fill="#0C1624"/>
  <rect x="424" y="572" width="54" height="65" fill="#0D1828"/>
  <rect x="827" y="438" width="24" height="132" fill="#0C1624"/>
  <rect x="522" y="767" width="29" height="109" fill="#0C1625"/>
  <rect x="491" y="402" width="60" height="45" fill="#0C1624"/>
  <rect x="860" y="352" width="78" height="34" fill="#0C1624"/>
  <rect x="522" y="910" width="29" height="90" fill="#0C1625"/>
  <rect x="455" y="527" width="55" height="45" fill="#039FCA"/>
  <rect x="478" y="588" width="73" height="33" fill="#0C1624"/>
  <rect x="253" y="276" width="16" height="148" fill="#0C1624"/>
  <rect x="633" y="844" width="30" height="76" fill="#0C1624"/>
  <rect x="851" y="438" width="16" height="132" fill="#0C1625"/>
  <rect x="938" y="352" width="62" height="34" fill="#0D1828"/>
  <rect x="269" y="572" width="32" height="65" fill="#0C1624"/>
  <rect x="602" y="621" width="120" height="16" fill="#0C1625"/>
  <rect x="471" y="447" width="47" height="40" fill="#039FCA"/>
  <rect x="372" y="544" width="67" height="28" fill="#0C1624"/>
  <rect x="285" y="538" width="53" height="34" fill="#0C1624"/>
  <rect x="430" y="402" width="61" height="29" fill="#0C1624"/>
  <rect x="301" y="572" width="23" height="65" fill="#0C1625"/>
  <rect x="900" y="579" width="16" height="93" fill="#0C1624"/>
  <rect x="867" y="627" width="33" height="45" fill="#0C1624"/>
  <rect x="663" y="915" width="17" height="85" fill="#0C1624"/>
  <rect x="338" y="352" width="41" height="34" fill="#0C1624"/>
  <rect x="269" y="468" width="19" height="70" fill="#00AEF7"/>
  <rect x="811" y="402" width="16" height="82" fill="#0C1624"/>
  <rect x="439" y="463" width="16" height="81" fill="#0C1624"/>
  <rect x="253" y="465" width="16" height="81" fill="#00AEF7"/>
  <rect x="551" y="542" width="16" height="79" fill="#0C1624"/>
  <rect x="801" y="557" width="26" height="48" fill="#0C1624"/>
  <rect x="478" y="572" width="73" height="16" fill="#0C1625"/>
  <rect x="722" y="621" width="63" height="16" fill="#0C1625"/>
  <rect x="526" y="487" width="25" height="40" fill="#00AEF7"/>
  <rect x="522" y="876" width="29" height="34" fill="#0C1624"/>
  <rect x="430" y="386" width="61" height="16" fill="#0D1828"/>
  <rect x="491" y="386" width="60" height="16" fill="#0D1828"/>
  <rect x="455" y="487" width="39" height="24" fill="#0C1624"/>
  <rect x="900" y="435" width="16" height="58" fill="#0C1625"/>
  <rect x="285" y="452" width="53" height="16" fill="#0C1624"/>
  <rect x="478" y="621" width="53" height="16" fill="#0D1828"/>
  <rect x="900" y="493" width="16" height="51" fill="#0D1828"/>
  <rect x="307" y="468" width="31" height="26" fill="#0D1828"/>
  <rect x="900" y="386" width="16" height="49" fill="#0C1624"/>
  <rect x="324" y="588" width="16" height="49" fill="#0C1624"/>
  <rect x="307" y="494" width="31" height="24" fill="#0C5674"/>
  <rect x="526" y="543" width="25" height="29" fill="#0C1625"/>
  <rect x="288" y="484" width="19" height="38" fill="#00AEF7"/>
  <rect x="551" y="484" width="16" height="42" fill="#039FCA"/>
  <rect x="843" y="644" width="24" height="28" fill="#0C1625"/>
  <rect x="494" y="487" width="16" height="40" fill="#0C5674"/>
  <rect x="722" y="581" width="16" height="40" fill="#0C1624"/>
  <rect x="633" y="823" width="30" height="21" fill="#0C1625"/>
  <rect x="388" y="422" width="25" height="25" fill="#0C1624"/>
  <rect x="307" y="518" width="31" height="20" fill="#0C1624"/>
  <rect x="843" y="602" width="24" height="25" fill="#00AEF7"/>
  <rect x="900" y="544" width="16" height="35" fill="#0C1625"/>
  <rect x="567" y="621" width="35" height="16" fill="#0C1625"/>
  <rect x="354" y="386" width="18" height="29" fill="#0C5674"/>
  <rect x="251" y="562" width="18" height="29" fill="#0D1828"/>
  <rect x="372" y="386" width="25" height="20" fill="#00AEF7"/>
  <rect x="413" y="402" width="17" height="29" fill="#0C1624"/>
  <rect x="843" y="386" width="24" height="20" fill="#00AEF7"/>
  <rect x="867" y="386" width="17" height="28" fill="#0C5674"/>
  <rect x="338" y="386" width="16" height="29" fill="#0D1828"/>
  <rect x="510" y="543" width="16" height="29" fill="#0C5674"/>
  <rect x="884" y="386" width="16" height="28" fill="#0D1828"/>
  <rect x="439" y="544" width="16" height="28" fill="#0D1828"/>
  <rect x="827" y="644" width="16" height="28" fill="#0C5674"/>
  <rect x="413" y="431" width="26" height="16" fill="#0C1624"/>
  <rect x="801" y="605" width="26" height="16" fill="#0D1828"/>
  <rect x="801" y="621" width="26" height="16" fill="#039FCA"/>
  <rect x="534" y="447" width="17" height="24" fill="#0C1624"/>
  <rect x="372" y="406" width="25" height="16" fill="#01B1ED"/>
  <rect x="372" y="422" width="16" height="25" fill="#0C5674"/>
  <rect x="253" y="424" width="16" height="25" fill="#0D1828"/>
  <rect x="510" y="527" width="25" height="16" fill="#00AEF7"/>
  <rect x="827" y="602" width="16" height="25" fill="#039FCA"/>
  <rect x="827" y="627" width="23" height="17" fill="#01B1ED"/>
  <rect x="843" y="406" width="24" height="16" fill="#01B1ED"/>
  <rect x="827" y="422" width="24" height="16" fill="#0C1624"/>
  <rect x="518" y="447" width="16" height="24" fill="#0D1828"/>
  <rect x="510" y="487" width="16" height="24" fill="#039FCA"/>
  <rect x="722" y="557" width="16" height="24" fill="#0D1828"/>
  <rect x="827" y="570" width="24" height="16" fill="#0C1624"/>
  <rect x="455" y="447" width="16" height="23" fill="#01B1ED"/>
  <rect x="455" y="511" width="23" height="16" fill="#0C1624"/>
  <rect x="407" y="637" width="19" height="19" fill="#00AEF7"/>
  <rect x="236" y="525" width="17" height="21" fill="#00AEF7"/>
  <rect x="867" y="591" width="17" height="20" fill="#00AEF7"/>
  <rect x="220" y="525" width="16" height="21" fill="#336079"/>
  <rect x="827" y="586" width="21" height="16" fill="#0D1828"/>
  <rect x="395" y="368" width="18" height="18" fill="#00AEF7"/>
  <rect x="826" y="368" width="18" height="18" fill="#00AEF7"/>
  <rect x="397" y="386" width="16" height="20" fill="#01B1ED"/>
  <rect x="827" y="386" width="16" height="20" fill="#01B1ED"/>
  <rect x="455" y="431" width="20" height="16" fill="#039FCA"/>
  <rect x="884" y="591" width="16" height="20" fill="#0C5674"/>
  <rect x="531" y="621" width="20" height="16" fill="#0C1625"/>
  <rect x="288" y="468" width="19" height="16" fill="#0C5674"/>
  <rect x="288" y="522" width="19" height="16" fill="#0C5674"/>
  <rect x="848" y="586" width="19" height="16" fill="#039FCA"/>
  <rect x="426" y="637" width="16" height="19" fill="#00AEF7"/>
  <rect x="811" y="637" width="16" height="19" fill="#00AEF7"/>
  <rect x="375" y="653" width="16" height="19" fill="#0C1624"/>
  <rect x="391" y="653" width="16" height="19" fill="#0C1625"/>
  <rect x="407" y="656" width="19" height="16" fill="#0C5674"/>
  <rect x="850" y="627" width="17" height="17" fill="#0C5674"/>
  <rect x="379" y="352" width="16" height="18" fill="#0C1624"/>
  <rect x="395" y="352" width="18" height="16" fill="#0C5674"/>
  <rect x="826" y="352" width="18" height="16" fill="#0C5674"/>
  <rect x="844" y="352" width="16" height="18" fill="#0C1625"/>
  <rect x="354" y="415" width="18" height="16" fill="#00AEF7"/>
  <rect x="269" y="554" width="16" height="18" fill="#0C1624"/>
  <rect x="413" y="386" width="17" height="16" fill="#0C5674"/>
  <rect x="867" y="414" width="17" height="16" fill="#00AEF7"/>
  <rect x="455" y="470" width="16" height="17" fill="#0D1828"/>
  <rect x="518" y="471" width="17" height="16" fill="#00AEF7"/>
  <rect x="883" y="611" width="17" height="16" fill="#0C1624"/>
  <rect x="379" y="370" width="16" height="16" fill="#0C5674"/>
  <rect x="844" y="370" width="16" height="16" fill="#0C5674"/>
  <rect x="811" y="386" width="16" height="16" fill="#0C5674"/>
  <rect x="397" y="406" width="16" height="16" fill="#0D1828"/>
  <rect x="827" y="406" width="16" height="16" fill="#0D1828"/>
  <rect x="884" y="414" width="16" height="16" fill="#039FCA"/>
  <rect x="338" y="415" width="16" height="16" fill="#039FCA"/>
  <rect x="851" y="422" width="16" height="16" fill="#0C5674"/>
  <rect x="439" y="431" width="16" height="16" fill="#0D1828"/>
  <rect x="475" y="431" width="16" height="16" fill="#0C5674"/>
  <rect x="439" y="447" width="16" height="16" fill="#0D1828"/>
  <rect x="253" y="449" width="16" height="16" fill="#01B1ED"/>
  <rect x="269" y="452" width="16" height="16" fill="#0C5674"/>
  <rect x="535" y="471" width="16" height="16" fill="#0C5674"/>
  <rect x="478" y="511" width="16" height="16" fill="#0D1828"/>
  <rect x="510" y="511" width="16" height="16" fill="#00AEF7"/>
  <rect x="551" y="526" width="16" height="16" fill="#0D1828"/>
  <rect x="535" y="527" width="16" height="16" fill="#0C5674"/>
  <rect x="269" y="538" width="16" height="16" fill="#0C5674"/>
  <rect x="237" y="546" width="16" height="16" fill="#00AEF7"/>
  <rect x="253" y="546" width="16" height="16" fill="#039FCA"/>
  <rect x="851" y="570" width="16" height="16" fill="#0D1828"/>
  <rect x="324" y="572" width="16" height="16" fill="#0D1828"/>
  <rect x="867" y="611" width="16" height="16" fill="#0C5674"/>
  <rect x="551" y="621" width="16" height="16" fill="#0C1625"/>
  <rect x="785" y="621" width="16" height="16" fill="#0D1828"/>
  <rect x="375" y="637" width="16" height="16" fill="#0D1828"/>
  <rect x="391" y="637" width="16" height="16" fill="#039FCA"/>
  <rect x="426" y="656" width="16" height="16" fill="#01B1ED"/>
  <rect x="811" y="656" width="16" height="16" fill="#0C5674"/>
</svg>
