<?xml version="1.0" encoding="UTF-8"?>
<svg xmlns="http://www.w3.org/2000/svg" width="1000" height="1000" viewBox="0 0 1000 1000">
  <rect width="1000" height="1000" fill="#0C1624"/>
  <rect x="559" y="881" width="14" height="7" fill="#0D1625"/>
  <rect x="703" y="699" width="5" height="10" fill="#0D1625"/>
  <rect x="639" y="805" width="7" height="7" fill="#0D1625"/>
  <rect x="426" y="770" width="12" height="4" fill="#0D1625"/>
  <rect x="797" y="703" width="15" height="3" fill="#0D1625"/>
  <rect x="608" y="763" width="11" height="4" fill="#0D1625"/>
  <rect x="732" y="811" width="8" height="5" fill="#0D1625"/>
  <rect x="644" y="700" width="6" height="6" fill="#0D1625"/>
  <rect x="605" y="721" width="6" height="6" fill="#0D1625"/>
  <rect x="471" y="780" width="3" height="12" fill="#0D1625"/>
  <rect x="477" y="763" width="5" height="7" fill="#0D1625"/>
  <rect x="509" y="827" width="7" height="5" fill="#0D1625"/>
  <rect x="377" y="702" width="3" height="11" fill="#0D1625"/>
  <rect x="836" y="699" width="16" height="2" fill="#0D1625"/>
  <rect x="429" y="726" width="16" height="2" fill="#0D1625"/>
  <rect x="520" y="807" width="8" height="4" fill="#0D1625"/>
  <rect x="548" y="840" width="8" height="4" fill="#0D1625"/>
  <rect x="590" y="874" width="8" height="4" fill="#0D1625"/>
  <rect x="669" y="884" width="4" height="8" fill="#0D1625"/>
  <rect x="669" y="340" width="5" height="6" fill="#0D1625"/>
  <rect x="598" y="427" width="6" height="5" fill="#0D1625"/>
  <rect x="300" y="582" width="5" height="6" fill="#0D1625"/>
  <rect x="399" y="685" width="5" height="6" fill="#0D1625"/>
  <rect x="848" y="701" width="6" height="5" fill="#0D1625"/>
  <rect x="593" y="718" width="10" height="3" fill="#0D1625"/>
  <rect x="787" y="719" width="6" height="5" fill="#0D1625"/>
  <rect x="434" y="774" width="6" height="5" fill="#0D1625"/>
  <rect x="738" y="777" width="6" height="5" fill="#0D1625"/>
  <rect x="478" y="799" width="6" height="5" fill="#0D1625"/>
  <rect x="811" y="810" width="5" height="6" fill="#0D1625"/>
  <rect x="540" y="827" width="6" height="5" fill="#0D1625"/>
  <rect x="487" y="834" width="5" height="6" fill="#0D1625"/>
  <rect x="688" y="861" width="10" height="3" fill="#0D1625"/>
  <rect x="549" y="865" width="5" height="6" fill="#0D1625"/>
  <rect x="596" y="878" width="6" height="5" fill="#0D1625"/>
  <rect x="613" y="883" width="6" height="5" fill="#0D1625"/>
  <rect x="527" y="172" width="4" height="7" fill="#0D1625"/>
  <rect x="662" y="311" width="4" height="7" fill="#0D1625"/>
  <rect x="436" y="545" width="4" height="7" fill="#0D1625"/>
  <rect x="666" y="704" width="4" height="7" fill="#0D1625"/>
  <rect x="382" y="709" width="7" height="4" fill="#0D1625"/>
  <rect x="705" y="730" width="4" height="7" fill="#0D1625"/>
  <rect x="738" y="743" width="7" height="4" fill="#0D1625"/>
  <rect x="542" y="792" width="4" height="7" fill="#0D1625"/>
  <rect x="622" y="803" width="2" height="14" fill="#0D1625"/>
  <rect x="606" y="822" width="14" height="2" fill="#0D1625"/>
  <rect x="480" y="827" width="4" height="7" fill="#0D1625"/>
  <rect x="530" y="830" width="4" height="7" fill="#0D1625"/>
  <rect x="593" y="852" width="4" height="7" fill="#0D1625"/>
  <rect x="782" y="534" width="9" height="3" fill="#0D1625"/>
  <rect x="739" y="714" width="3" height="9" fill="#0D1625"/>
  <rect x="627" y="750" width="9" height="3" fill="#0D1625"/>
  <rect x="422" y="779" width="9" height="3" fill="#0D1625"/>
  <rect x="743" y="753" width="13" height="2" fill="#0D1625"/>
  <rect x="507" y="820" width="13" height="2" fill="#0D1625"/>
  <rect x="557" y="849" width="13" height="2" fill="#0D1625"/>
  <rect x="669" y="867" width="2" height="13" fill="#0D1625"/>
  <rect x="617" y="261" width="5" height="5" fill="#0D1625"/>
  <rect x="749" y="289" width="5" height="5" fill="#0D1625"/>
  <rect x="399" y="538" width="5" height="5" fill="#0D1625"/>
  <rect x="539" y="592" width="5" height="5" fill="#0D1625"/>
  <rect x="430" y="691" width="5" height="5" fill="#0D1625"/>
  <rect x="562" y="706" width="5" height="5" fill="#0D1625"/>
</svg>
