<?xml version="1.0" encoding="UTF-8"?>
<svg xmlns="http://www.w3.org/2000/svg" width="1025" height="1023" viewBox="0 0 1025 1023">
  <path d="M408 0 L592 0 L752 56 L888 168 L888 184 L944 248 L992 368 L992 384 L584 384 L576 368 L560 368 L552 352 L536 352 L528 336 L512 336 L416 264 L240 264 L240 248 L192 216 L144 224 L112 256 L112 320 L128 344 L160 360 L216 352 L248 312 L408 312 L416 328 L432 328 L536 408 L552 408 L568 432 L1000 432 L1000 544 L616 544 L560 488 L384 488 L336 440 L280 448 L256 472 L248 536 L296 584 L352 576 L384 536 L544 536 L608 592 L992 592 L992 632 L960 712 L520 712 L496 672 L456 656 L392 688 L384 760 L424 800 L480 800 L488 784 L504 784 L512 760 L928 760 L896 824 L792 920 L760 928 L752 944 L704 968 L600 1000 L800 904 L752 944 L600 1000 L808 896 L752 944 L600 1000 L736 944 L704 968 L632 992 L600 1000 L704 960 L632 992 L528 1008 L400 1000 L296 968 L224 928 L216 912 L200 912 L192 896 L176 896 L112 832 L112 816 L88 800 L88 784 L72 776 L32 704 L0 592 L8 368 L32 296 L72 224 L88 216 L88 200 L168 112 L184 112 L224 72 L320 24 Z" fill="#0D3559"/>
</svg>
